<?xml version="1.0" encoding="iso-8859-1"?>
<!-- Generator: Adobe Illustrator 19.0.0, SVG Export Plug-In . SVG Version: 6.00 Build 0)  -->
<svg version="1.1" id="Capa_1" xmlns="http://www.w3.org/2000/svg" xmlns:xlink="http://www.w3.org/1999/xlink" x="0px"
    y="0px" viewBox="0 0 496 496" style="enable-background:new 0 0 496 496;" xml:space="preserve">
    <g>
        <g>
            <path style="fill:#d69e2e;" d="M460.512,233.2c-10.552-10.56-22.824-18.984-36.536-25.08l-64.904-28.008L302.536,34.744L264,9.048v130.024
			L155.168,92.104l-0.08,0.184L108.944,0H80v90.584l-80,32v39.832l75.88-20.232l-0.32,0.472l105.104,70.064L23.128,278.36
			l39.168,26.112l198.976-38.512c59.96,36.952,125.352,62.72,194.424,76.528c4.992,1.008,10.096,1.512,15.176,1.512
			C484.728,344,496,332.728,496,318.872C496,286.512,483.4,256.08,460.512,233.2z M280,38.952l9.464,6.304l48.976,125.952
			L280,145.984V38.952z M96,16h3.056L144,105.888V112h-13.784L96,91.472V16z M16,141.584v-8.168l71.288-28.512l20.392,12.232
			L16,141.584z M65.704,287.52l-8.832-5.88l174.472-72.696l58.632,35.176L65.704,287.52z M470.872,328
			c-4.024,0-8.08-0.4-12.04-1.192c-61.384-12.28-119.744-34.328-173.856-65.432l49.048-9.496l-101.368-60.824l-34.24,14.264
			L95.744,136.88l33.304-8.88H160v-16.384l257.552,111.152c11.832,5.264,22.48,12.576,31.648,21.744
			c19.864,19.864,30.8,46.272,30.8,74.36C480,323.904,475.904,328,470.872,328z" />
        </g>
    </g>
    <g>
        <g>
            <path style="fill:#d69e2e;" d="M437.888,255.824c-7.76-7.76-16.792-13.968-26.832-18.424l-6.496,14.616c8.248,3.664,15.656,8.752,22.016,15.12
			c9.928,9.936,16.744,22.344,19.712,35.88l15.624-3.432C458.288,283.056,449.984,267.92,437.888,255.824z" />
        </g>
    </g>
    <g>
        <g>
            <rect style="fill:#d69e2e;" y="480" width="496" height="16" />
        </g>
    </g>
    <g>
        <g>
            <rect style="fill:#d69e2e;" x="160" y="144" width="16" height="16" />
        </g>
    </g>
    <g>
        <g>
            <rect style="fill:#d69e2e;" x="200" y="160" width="16" height="16" />
        </g>
    </g>
    <g>
        <g>
            <rect style="fill:#d69e2e;" x="336.032" y="349.364" transform="matrix(0.53 -0.848 0.848 0.53 -182.5613 482.5424)" width="16"
                height="113.2" />
        </g>
    </g>
    <g>
        <g>
            <rect style="fill:#d69e2e;" x="231.983" y="299.083" transform="matrix(0.5214 -0.8533 0.8533 0.5214 -220.3581 392.7914)" width="16"
                height="187.51" />
        </g>
    </g>
    <g>
        <g>
            <rect style="fill:#d69e2e;" x="408.02" y="441.609" transform="matrix(0.5298 -0.8481 0.8481 0.5298 -186.9266 564.9077)" width="16"
                height="18.864" />
        </g>
    </g>
    <g>
        <g>
            <rect style="fill:#d69e2e;" x="88" y="309.396" transform="matrix(0.53 -0.848 0.848 0.53 -265.244 253.4266)" width="16"
                height="113.2" />
        </g>
    </g>
    <g>
        <g>
            <rect style="fill:#d69e2e;" x="159.986" y="401.626" transform="matrix(0.5298 -0.8481 0.8481 0.5298 -269.6393 335.7462)" width="16"
                height="18.864" />
        </g>
    </g>
</svg>