<?xml version="1.0" encoding="iso-8859-1"?>
<!-- Generator: Adobe Illustrator 19.0.0, SVG Export Plug-In . SVG Version: 6.00 Build 0)  -->
<svg version="1.1" id="Layer_1" xmlns="http://www.w3.org/2000/svg" xmlns:xlink="http://www.w3.org/1999/xlink" x="0px" y="0px"
	 viewBox="0 0 460 460" style="enable-background:new 0 0 460 460;" xml:space="preserve">
<g id="XMLID_1520_">
	<path id="XMLID_831_" style="fill:#D7D5C8;" d="M418.666,271.914L418.666,271.914l-1.328,4.969l0,0
		c-2.446,9.147-10.902,15.364-20.342,14.956l-18.881-0.817c-23.294-1.008-46.409-4.567-68.93-10.615L194.61,249.641
		c-66.788-17.935-125.971-57.095-168.664-111.603l0,0c-2.756-4.784-3.503-10.469-2.076-15.804
		c1.815-6.788,8.777-10.816,15.549-8.997l9.117,2.448l-2.217-74.88c-0.304-10.272,9.358-17.933,19.263-15.273l0,0
		c4.192,1.126,7.71,3.981,9.679,7.857L127.91,137l183.062,49.158c16.447,4.416,31.996,11.68,45.947,21.464l51.511,36.124
		C417.413,250.044,421.503,261.302,418.666,271.914z"/>
	<path id="XMLID_830_" style="fill:#5C676B;" d="M416.168,252.298l-32.062-8.61c-12.398-3.329-19.756-16.101-16.434-28.526l0,0
		l40.759,28.584C411.689,246.031,414.294,248.974,416.168,252.298z"/>
	<path id="XMLID_822_" style="fill:#D4632E;" d="M75.261,33.388l52.649,103.611l-79.374-21.314l-2.217-74.88
		c-0.304-10.272,9.358-17.933,19.263-15.273l0,0C69.774,26.657,73.292,29.513,75.261,33.388z"/>
	<path id="XMLID_820_" style="fill:#BC3C28;" d="M91.571,98.822C70.963,93.288,55.086,78.9,46.913,60.837L46.32,40.805
		c-0.304-10.272,9.358-17.933,19.263-15.273l0,0c4.192,1.126,7.71,3.981,9.679,7.857l34.437,67.77
		C103.714,101.19,97.63,100.449,91.571,98.822z"/>
	<path id="XMLID_819_" style="fill:#4C4C4B;" d="M259.285,267.008c-2.61,9.763-12.623,15.556-22.365,12.94
		s-15.523-12.651-12.912-22.413c2.61-9.763,12.623-15.556,22.365-12.94C256.114,247.21,261.895,257.245,259.285,267.008z"/>
	<path id="XMLID_817_" style="fill:#ADABA3;" d="M250.465,264.641c-1.305,4.881-6.312,7.778-11.182,6.47
		c-4.871-1.308-7.761-6.325-6.456-11.207c1.305-4.881,6.312-7.778,11.182-6.47C248.88,254.741,251.77,259.758,250.465,264.641z"/>
	<path id="XMLID_816_" style="fill:#BEBCB2;" d="M418.666,271.915l-1.328,4.969l0,0c-2.446,9.147-10.902,15.364-20.342,14.956
		l-18.88-0.817c-23.294-1.007-46.409-4.567-68.931-10.615L194.61,249.642c-50.158-13.469-96.025-38.911-133.841-73.833
		l146.233,39.268l-9.14-152.601c-0.61-10.184,8.915-17.974,18.748-15.334l0,0c4.115,1.105,7.562,3.921,9.472,7.737l95.57,190.985
		l90.681,24.351l5.679,1.525L418.666,271.915z"/>
	<path id="XMLID_815_" style="fill:#ADABA3;" d="M202.96,70.725l82.82,165.505l-2.363,8.838l-78.778-21.154l2.363-8.838
		L198.36,70.779C199.146,69.013,201.937,68.68,202.96,70.725z"/>
	<path id="XMLID_814_" style="fill:#D4632E;" d="M76.688,189.556c-5.448-4.404-10.761-8.984-15.919-13.748l146.233,39.268
		l114.651,30.787l90.681,24.351l1.7,0.456l3.979,1.069l0.653,0.175l-1.328,4.969l0,0c-0.353,1.322-0.846,2.574-1.435,3.762
		L76.688,189.556z"/>
	<path id="XMLID_813_" style="fill:#BEBCB2;" d="M460,424.957V425c0,5.523-4.477,10-10,10H10c-5.523,0-10-4.477-10-10v-0.043
		c0-5.523,4.477-10,10-10h440C455.523,414.957,460,419.434,460,424.957z"/>
</g>
<g>
</g>
<g>
</g>
<g>
</g>
<g>
</g>
<g>
</g>
<g>
</g>
<g>
</g>
<g>
</g>
<g>
</g>
<g>
</g>
<g>
</g>
<g>
</g>
<g>
</g>
<g>
</g>
<g>
</g>
</svg>
