<?xml version="1.0" encoding="iso-8859-1"?>
<!-- Generator: Adobe Illustrator 19.0.0, SVG Export Plug-In . SVG Version: 6.00 Build 0)  -->
<svg version="1.1" id="Capa_1" xmlns="http://www.w3.org/2000/svg" xmlns:xlink="http://www.w3.org/1999/xlink" x="0px"
    y="0px" viewBox="0 0 496 496" style="enable-background:new 0 0 496 496;" xml:space="preserve">
    <g>
        <g>
            <path style="fill:#d69e2e;" d="M485.104,443.296l-71.192-58.248c-7.128-5.84-16.12-9.048-25.336-9.048H336v-96c0-22.056-17.944-40-40-40h-24v-40h3.84
			l14.72-18.4c4.304,1.528,8.832,2.4,13.44,2.4c22.056,0,40-17.944,40-40c0-22.056-17.944-40-40-40
			c-19.312,0-35.472,13.768-39.192,32H216v18.808L252.16,200H256v40H136.472L109.32,128h4.64c12.152,0,22.04-9.888,22.04-22.032
			c0-2.032-0.288-4.064-0.848-6.056L122.6,55.984C119.912,46.568,111.2,40,101.416,40H87.992l-4.24-17.504
			C80.536,9.256,68.768,0,55.136,0H53.44C37.208,0,24,13.208,24,29.44c0,2.328,0.28,4.656,0.832,6.936L35.44,80.144
			C15.784,80.92,0,97.032,0,116.88c0,2.656,0.288,5.312,0.848,7.88L57.56,384h44.192l8,32H104c-22.056,0-40,17.944-40,40v8h16v32
			h288v-32h16v-8c0-7.088-2.008-13.648-5.256-19.424c0.336,0.24,0.704,0.424,1.024,0.68l65.288,52.232
			c5.248,4.2,11.84,6.512,18.56,6.512h2.672C482.672,496,496,482.672,496,466.288C496,457.336,492.024,448.96,485.104,443.296z
			 M304,120c13.232,0,24,10.768,24,24s-10.768,24-24,24c-0.784,0-1.536-0.232-2.312-0.304L312,154.808V136h-30.528
			C284.784,126.712,293.584,120,304,120z M234.248,152h59.504l-25.6,32h-8.312L234.248,152z M296,256c13.232,0,24,10.768,24,24v24
			h-80v-16H96.28c1.424-17.856,16.24-32,34.464-32H296z M101.416,56c2.68,0,5.064,1.8,5.808,4.376l12.544,43.912
			c0.152,0.552,0.232,1.12,0.232,1.68c0,3.328-2.704,6.032-6.032,6.032h-8.528L91.864,56H101.416z M53.44,16h1.696
			c6.224,0,11.592,4.224,13.064,10.272l52.08,214.824c-10.04,2.112-18.984,7.216-25.888,14.312L40.376,32.616
			C40.128,31.568,40,30.504,40,29.44C40,22.024,46.024,16,53.44,16z M70.44,368L16.48,121.336c-0.32-1.456-0.48-2.96-0.48-4.456
			C16,105.368,25.368,96,36.88,96h2.4l43.128,177.888l0.232,0.856c-1.68,5.032-2.64,10.4-2.64,15.992
			c0,4.144,0.512,8.28,1.512,12.312L97.752,368H70.44z M98.248,304H224v16h96v96h-67.056l-16-32H152v32h-25.752L98.248,304z
			 M235.056,416H168v-16h59.056L235.056,416z M352,480H96v-16h256V480z M81.368,448c3.304-9.312,12.2-16,22.632-16h9.752H328h8h8
			c10.432,0,19.328,6.688,22.632,16H81.368z M466.288,480h-2.672c-3.104,0-6.144-1.064-8.568-3l-65.288-52.232
			c-7.064-5.656-15.936-8.768-24.984-8.768H344h-8v-24h52.576c5.528,0,10.92,1.928,15.192,5.424l71.192,58.248
			c3.208,2.624,5.04,6.488,5.04,10.616C480,473.848,473.848,480,466.288,480z" />
        </g>
    </g>
    <g>
        <g>
            <rect style="fill:#d69e2e;" x="256" y="272" width="16" height="16" />
        </g>
    </g>
    <g>
        <g>
            <rect style="fill:#d69e2e;" x="288" y="272" width="16" height="16" />
        </g>
    </g>
</svg>
