<svg height="512pt" viewBox="0 0 512 512" width="512pt" xmlns="http://www.w3.org/2000/svg">
    <path style="fill:#f1a80f;"
        d="m304.765625 150.300781c-17.859375 0-34.832031 5.796875-48.765625 16.5-13.929688-10.703125-30.902344-16.5-48.765625-16.5-21.429687 0-41.582031 8.347657-56.734375 23.5-15.152344 15.152344-23.5 35.304688-23.5 56.734375 0 21.429688 8.347656 41.578125 23.5 56.734375l105.5 105.5 105.5-105.5c15.152344-15.15625 23.5-35.300781 23.5-56.734375s-8.347656-41.582031-23.5-56.734375c-15.15625-15.15625-35.304688-23.5-56.734375-23.5zm35.519531 115.757813-84.285156 84.285156-84.285156-84.285156c-9.488282-9.492188-14.714844-22.105469-14.714844-35.523438 0-13.417968 5.226562-26.035156 14.714844-35.523437 9.484375-9.488281 22.101562-14.710938 35.519531-14.710938s26.035156 5.222657 35.519531 14.710938c.671875.667969 1.355469 1.398437 2.039063 2.164062l11.207031 12.597657 11.207031-12.597657c.679688-.765625 1.367188-1.492187 2.035157-2.164062 9.488281-9.488281 22.105468-14.710938 35.523437-14.710938s26.03125 5.222657 35.519531 14.710938c9.488282 9.488281 14.714844 22.105469 14.714844 35.523437 0 13.417969-5.226562 26.03125-14.714844 35.523438zm0 0" />
    <path style="fill:#f1a80f;"
        d="m256 61c-107.523438 0-195 87.476562-195 195s87.476562 195 195 195 195-87.476562 195-195-87.476562-195-195-195zm0 360c-90.980469 0-165-74.019531-165-165s74.019531-165 165-165 165 74.019531 165 165-74.019531 165-165 165zm0 0" />
    <path style="fill:#f1a80f;"
        d="m512 256c0-13.210938-4.222656-25.746094-12.191406-36.234375-5.132813-6.773437-6.84375-15.367187-4.699219-23.566406 3.359375-12.761719 2.460937-25.960938-2.59375-38.164063-5.058594-12.207031-13.753906-22.175781-25.132813-28.8125-7.332031-4.292968-12.203124-11.582031-13.359374-19.976562-1.78125-13.074219-7.660157-24.921875-17.003907-34.265625-9.339843-9.34375-21.191406-15.222657-34.246093-17-8.414063-1.160157-15.703126-6.03125-19.984376-13.339844-6.648437-11.402344-16.613281-20.097656-28.820312-25.15625-7.324219-3.03125-15.03125-4.570313-22.914062-4.570313-5.136719 0-10.269532.664063-15.230469 1.972657-2.273438.59375-4.613281.894531-6.960938.894531-5.964843 0-11.871093-1.984375-16.605469-5.574219-10.507812-7.984375-23.042968-12.207031-36.257812-12.207031-13.210938 0-25.746094 4.222656-36.238281 12.191406-4.753907 3.605469-10.65625 5.589844-16.625 5.589844-2.34375 0-4.6875-.300781-6.9375-.890625-4.984375-1.3125-10.113281-1.976563-15.253907-1.976563-7.878906 0-15.589843 1.539063-22.914062 4.570313-12.203125 5.058594-22.171875 13.753906-28.8125 25.132813-4.289062 7.332031-11.578125 12.203124-19.972656 13.359374-13.074219 1.78125-24.925782 7.664063-34.265625 17.003907-9.34375 9.34375-15.222657 21.191406-17 34.246093-1.160157 8.414063-6.03125 15.703126-13.339844 19.984376-11.402344 6.648437-20.097656 16.613281-25.152344 28.820312-5.058593 12.207031-5.957031 25.402344-2.601562 38.144531 2.148437 8.21875.4375 16.816407-4.679688 23.566407-7.984375 10.511718-12.207031 23.046874-12.207031 36.257812s4.222656 25.746094 12.191406 36.238281c5.132813 6.769531 6.84375 15.363281 4.699219 23.5625-3.359375 12.761719-2.460937 25.960938 2.59375 38.164063 5.058594 12.210937 13.753906 22.175781 25.132813 28.8125 7.332031 4.292968 12.203124 11.578125 13.359374 19.972656 1.78125 13.078125 7.660157 24.929688 17.003907 34.269531 9.34375 9.34375 21.191406 15.222657 34.246093 17 8.414063 1.160157 15.703126 6.027344 19.984376 13.339844 6.648437 11.398437 16.613281 20.097656 28.820312 25.152344 7.324219 3.035156 15.035156 4.574219 22.914062 4.574219 5.140626 0 10.269532-.664063 15.230469-1.972657 2.273438-.59375 4.617188-.894531 6.960938-.894531 5.964843 0 11.871093 1.980469 16.605469 5.570312 10.507812 7.988282 23.046874 12.210938 36.257812 12.210938 13.214844 0 25.75-4.222656 36.238281-12.191406 4.753907-3.605469 10.65625-5.589844 16.621094-5.589844 2.347656 0 4.6875.300781 6.941406.890625 4.984375 1.3125 10.113281 1.976563 15.25 1.976563 7.882813 0 15.59375-1.539063 22.914063-4.570313 12.207031-5.058594 22.175781-13.753906 28.8125-25.132813 4.292968-7.332031 11.582031-12.203124 19.976562-13.359374 13.074219-1.78125 24.925782-7.660157 34.265625-17.003907 9.34375-9.339843 15.222657-21.191406 17-34.246093 1.160157-8.414063 6.03125-15.703126 13.34375-19.980469 11.398438-6.652344 20.09375-16.617188 25.152344-28.824219 5.054687-12.203125 5.953125-25.402344 2.601563-38.144531-2.148438-8.21875-.441407-16.816407 4.675781-23.566407 7.984375-10.511718 12.207031-23.046874 12.207031-36.257812zm-36.105469 18.117188c-10.722656 14.148437-14.296875 32.117187-9.796875 49.316406 1.671875 6.367187 1.222656 12.957031-1.300781 19.050781-2.527344 6.097656-6.867187 11.074219-12.574219 14.402344-15.320312 8.972656-25.5 24.203125-27.925781 41.8125-.890625 6.523437-3.824219 12.441406-8.492187 17.105469-4.664063 4.667968-10.578126 7.605468-17.125 8.496093-17.589844 2.421875-32.820313 12.601563-41.800782 27.941407-3.320312 5.6875-8.296875 10.027343-14.394531 12.554687-3.664063 1.519531-7.511719 2.289063-11.433594 2.289063-2.5625 0-5.125-.332032-7.640625-.996094-4.75-1.242188-9.644531-1.871094-14.550781-1.871094-12.46875 0-24.808594 4.144531-34.761719 11.691406-5.242187 3.984375-11.5 6.089844-18.101562 6.089844-6.597656 0-12.855469-2.105469-18.117188-6.105469-9.9375-7.53125-22.273437-11.675781-34.742187-11.675781-4.90625 0-9.800781.628906-14.574219 1.878906-6.308594 1.65625-12.992188 1.210938-19.050781-1.300781-6.097657-2.527344-11.074219-6.867187-14.402344-12.574219-8.96875-15.320312-24.203125-25.5-41.8125-27.925781-6.523437-.890625-12.4375-3.824219-17.105469-8.492187-4.667968-4.664063-7.601562-10.582032-8.496094-17.125-2.421874-17.589844-12.597656-32.820313-27.941406-41.804688-5.6875-3.316406-10.027344-8.292969-12.554687-14.390625-2.523438-6.097656-2.972657-12.6875-1.292969-19.074219 4.492188-17.175781.917969-35.144531-9.816406-49.3125-3.984375-5.238281-6.089844-11.496094-6.089844-18.097656s2.105469-12.859375 6.101562-18.117188c10.726563-14.152343 14.300782-32.117187 9.800782-49.316406-1.675782-6.367187-1.222656-12.957031 1.300781-19.054687 2.523437-6.097657 6.867187-11.070313 12.570313-14.398438 15.324218-8.972656 25.5-24.203125 27.925781-41.8125.890625-6.523437 3.828125-12.441406 8.492187-17.105469 4.667969-4.667968 10.582032-7.605468 17.128906-8.496093 17.589844-2.421875 32.820313-12.601563 41.800782-27.941407 3.316406-5.6875 8.292968-10.027343 14.390625-12.554687 6.0625-2.511719 12.710937-2.964844 19.074219-1.292969 4.75 1.242188 9.648437 1.871094 14.550781 1.871094 12.46875 0 24.808593-4.148438 34.761719-11.6875 5.242187-3.988281 11.503906-6.09375 18.101562-6.09375 6.601562 0 12.859375 2.105469 18.117188 6.105469 9.9375 7.527343 22.277343 11.675781 34.746093 11.675781 4.90625 0 9.800781-.628906 14.570313-1.875 6.308594-1.660156 12.992187-1.214844 19.050781 1.296875 6.097656 2.527344 11.074219 6.867187 14.40625 12.574219 8.96875 15.320312 24.199219 25.5 41.808594 27.925781 6.527343.890625 12.441406 3.824219 17.105469 8.488281 4.667968 4.667969 7.605468 10.585938 8.496093 17.128906 2.421875 17.589844 12.601563 32.820313 27.941407 41.800782 5.6875 3.320312 10.027343 8.296875 12.554687 14.394531 2.523437 6.097656 2.972656 12.683594 1.292969 19.074219-4.492188 17.175781-.917969 35.144531 9.820312 49.3125 3.984375 5.238281 6.089844 11.5 6.089844 18.097656 0 6.601562-2.105469 12.859375-6.105469 18.117188zm0 0" />
</svg>
