<svg height="487pt" viewBox="0 -24 487.38118 487" width="487pt" xmlns="http://www.w3.org/2000/svg">
    <path style="fill:#f1a80f;"
        d="m472.226562 110.148438-47.726562-18.289063c-12.945312-4.953125-27.148438-5.578125-40.480469-1.785156l-52.640625 14.335937-165.039062-103c-1.921875-1.210937-4.269532-1.539062-6.449219-.902344l-37.214844 10.726563c-2.632812.761719-4.691406 2.820313-5.457031 5.449219-.765625 2.632812-.132812 5.472656 1.679688 7.527344l98.144531 111.335937-97.726563 26.617187-76-72.953124c-2.058594-1.976563-5.015625-2.710938-7.761718-1.917969l-29.765626 8.582031c-2.367187.683594-4.289062 2.414062-5.210937 4.699219-.917969 2.285156-.734375 4.867187.5 6.996093l43.34375 74.984376-27.488281 7.488281c-3.410156.929687-5.804688 3.988281-5.890625 7.519531-.089844 3.53125 2.148437 6.703125 5.503906 7.800781l37.351563 12.175781-7.308594 74.671876c-.226563 2.257812.511718 4.503906 2.039062 6.183593 1.523438 1.675781 3.691406 2.628907 5.960938 2.617188.75.003906 1.496094-.101563 2.214844-.3125l22.328124-6.398438c2.1875-.632812 4.003907-2.164062 4.992188-4.21875l26.09375-54.15625c14 3.871094 28.460938 5.835938 42.984375 5.839844 9.089844.164063 18.160156-.914063 26.960937-3.203125l55.558594-16-21.558594 132.210938c-.375 2.3125.285157 4.675781 1.804688 6.460937 1.519531 1.789063 3.746094 2.816406 6.089844 2.816406.75 0 1.496094-.105469 2.21875-.3125l37.214844-10.726562c2.179687-.628907 3.992187-2.152344 4.984374-4.191407l76.222657-157.152343 127.730469-36.800781c9.714843-2.855469 16.523437-11.589844 16.933593-21.707032.40625-10.117187-5.683593-19.367187-15.136719-22.996094zm-436.664062-6.199219 64.683594 62.078125-40.203125 11.585937-40-69.195312zm103.683594-80.839844 21.644531-6.242187 149.457031 93.273437-76.113281 20.726563zm-68 256.796875-7.570313 2.1875 6.503907-66.402344 37.128906-10.679687zm182.398437 58.753906-21.648437 6.238282 26.238281-161.3125 82.097656-23.695313zm212.351563-199.183594-113.902344 32.800782 10.460938-21.601563c1.390624-2.84375.976562-6.238281-1.058594-8.660156s-5.308594-3.417969-8.347656-2.539063l-81.878907 23.597657-22.335937 6.402343c-2.972656.855469-5.183594 3.347657-5.679688 6.398438l-4.730468 29.136719-62.824219 18.136719c-19.359375 3.835937-39.339844 3.167968-58.398438-1.945313l12.230469-25.390625c1.371094-2.84375.941406-6.226562-1.09375-8.636719-2.035156-2.410156-5.296875-3.398437-8.328125-2.523437l-59.609375 17.160156c-.460938.160156-.90625.363281-1.328125.605469l-12.222656-4 341.390625-92.933594c10.011718-2.855469 20.675781-2.394531 30.402344 1.3125l8.527343 3.261719-46.539062 13.417968 4.425781 15.375 66.910156-19.289062 14.402344 5.53125c2.230469.863281 3.929688 2.722656 4.589844 5.023438 1.175781 3.980468-1.085938 8.164062-5.0625 9.359374zm0 0" />
    <path style="fill:#f1a80f;" d="m4.5 422.613281h480v16h-480zm0 0" />
</svg>
