<svg aria-hidden="true" class="" focusable="false" height="10" width="43"
viewBox="0 0 52 12">
<path fill="#FEBA02"
d="M13 4.6c0-.1-.1-.2-.2-.2l-4.5-.3-1.5-4c-.1-.1-.5-.1-.5 0l-1.5 4-4.6.3c-.1 0-.2.1-.2.2s0 .2.1.3l3.5 2.5-1.2 4.3c0 .1 0 .2.1.3h.3l3.7-2.6 3.7 2.6H10.5c.1-.1.1-.2.1-.3L9.4 7.3l3.5-2.5c.1 0 .1-.1.1-.2zM26 4.6c0-.1-.1-.2-.2-.2l-4.5-.3-1.5-4c-.1-.2-.4-.2-.5 0l-1.5 4-4.5.3c-.1 0-.2.1-.2.2s0 .2.1.3l3.5 2.5-1.2 4.3c0 .1 0 .2.1.3.1.1.2.1.3 0l3.7-2.6 3.7 2.6H23.6c.1-.1.1-.2.1-.3l-1.2-4.3L26 4.9v-.3zM39 4.6c0-.1-.1-.2-.2-.2l-4.5-.3-1.5-4c-.1-.2-.4-.2-.5 0l-1.5 4-4.5.3c-.1 0-.2.1-.2.2s0 .2.1.3l3.5 2.5-1.2 4.3c0 .1 0 .2.1.3.1.1.2.1.3 0l3.7-2.6 3.7 2.6H36.6c.1-.1.1-.2.1-.3l-1.2-4.3L39 4.9v-.3zM52 4.6c0-.1-.1-.2-.2-.2l-4.5-.3-1.5-4c-.1-.2-.4-.2-.5 0l-1.5 4-4.5.3c-.1 0-.2.1-.2.2s0 .2.1.3l3.5 2.5-1.2 4.3c0 .1 0 .2.1.3.1.1.2.1.3 0l3.7-2.6 3.7 2.6H49.6c.1-.1.1-.2.1-.3l-1.2-4.3L52 4.9v-.3z">
</path>
<title>4 star</title>
</svg>
