<svg id="f785626e-4813-441a-9323-8af1423a66c9" xmlns="http://www.w3.org/2000/svg"
    xmlns:xlink="http://www.w3.org/1999/xlink" viewBox="0 0 766.9 651.95">
    <defs>
        <style>
            .cls-1,
            .cls-20,
            .cls-21 {
                fill: none;
            }

            .cls-11,
            .cls-13,
            .cls-2,
            .cls-23,
            .cls-3,
            .cls-8 {
                fill: #6c63ff;
            }

            .cls-2 {
                opacity: 0.3;
            }

            .cls-17,
            .cls-2,
            .cls-8 {
                isolation: isolate;
            }

            .cls-4,
            .cls-7 {
                fill: #3f3d56;
            }

            .cls-5 {
                fill: #f0f0f0;
            }

            .cls-6 {
                clip-path: url(#clip-path);
            }

            .cls-11,
            .cls-14,
            .cls-7 {
                stroke: #6c63ff;
                stroke-width: 0.12px;
            }

            .cls-11,
            .cls-13,
            .cls-14,
            .cls-20,
            .cls-21,
            .cls-23,
            .cls-7 {
                stroke-miterlimit: 10;
            }

            .cls-8 {
                opacity: 0.4;
            }

            .cls-9 {
                fill: #ccc;
            }

            .cls-10 {
                fill: #f2f2f2;
            }

            .cls-12,
            .cls-14 {
                fill: #fff;
            }

            .cls-13,
            .cls-23 {
                stroke: #fff;
            }

            .cls-13 {
                stroke-width: 0.47px;
            }

            .cls-15 {
                fill: #2f2e41;
            }

            .cls-16 {
                fill: #ffb9b9;
            }

            .cls-17 {
                opacity: 0.1;
            }

            .cls-18 {
                fill: #575a89;
            }

            .cls-19 {
                fill: #606060;
            }

            .cls-20 {
                stroke: #2f2e41;
                stroke-width: 0.35px;
            }

            .cls-21 {
                stroke: #3f3d56;
                stroke-width: 0.23px;
            }

            .cls-22 {
                fill: #57b894;
            }

            .cls-23 {
                stroke-width: 0.78px;
            }

            .cls-24 {
                fill: #ff6584;
            }

        </style>
        <clipPath id="clip-path" transform="translate(-131 -74)">
            <rect class="cls-1" x="633" y="356.17" width="89" height="65.59" />
        </clipPath>
    </defs>
    <title>travel_plans 2</title>
    <circle class="cls-2" cx="303" cy="166.95" r="110" />
    <circle class="cls-2" cx="90" cy="472.95" r="65" />
    <circle class="cls-2" cx="507" cy="472.95" r="133" />
    <path class="cls-3" d="M197.13,332l-2-.42q.63-2.95,1.31-5.87l1.95.45Q197.75,329.11,197.13,332Z"
        transform="translate(-131 -74)" />
    <path class="cls-3"
        d="M826.89,315.51c-1-3.81-2.14-7.66-3.31-11.44l1.91-.59c1.18,3.8,2.3,7.67,3.33,11.51Zm-625.54-.87-1.93-.53c1-3.85,2.18-7.73,3.37-11.54l1.91.6c-1.18,3.79-2.31,7.65-3.35,11.47Zm618.51-21.85c-1.31-3.73-2.7-7.48-4.14-11.15l1.86-.73c1.45,3.68,2.85,7.46,4.16,11.22Zm-611.38-1-1.89-.67c1.33-3.76,2.75-7.55,4.22-11.25l1.86.74C211.21,284.33,209.8,288.1,208.48,291.84Zm602.69-21.18c-1.57-3.61-3.24-7.25-5-10.82L808,259c1.72,3.59,3.4,7.25,5,10.88Zm-593.9-1-1.83-.81c1.61-3.65,3.3-7.32,5-10.9l1.8.87C220.55,262.36,218.87,266,217.27,269.64Zm583.59-20.43c-1.84-3.5-3.77-7-5.74-10.43l1.73-1c2,3.44,3.92,7,5.77,10.49Zm-573.18-1-1.77-.94c1.87-3.52,3.83-7.05,5.83-10.5l1.73,1C231.49,241.15,229.55,244.66,227.69,248.16ZM789,228.57c-2.09-3.35-4.28-6.71-6.49-10l1.66-1.12c2.23,3.29,4.43,6.67,6.53,10Zm-549.36-1.05L238,226.45c2.12-3.37,4.34-6.75,6.58-10l1.65,1.13C244,220.81,241.76,224.17,239.65,227.51Zm536-18.67c-2.32-3.18-4.75-6.37-7.21-9.48l1.57-1.24c2.48,3.14,4.91,6.35,7.25,9.54Zm-522.57-1-1.61-1.19c2.37-3.21,4.82-6.41,7.3-9.52l1.56,1.25C257.89,201.44,255.45,204.62,253.09,207.81ZM760.9,190.15c-2.56-3-5.21-6-7.88-8.93l1.47-1.35c2.69,2.93,5.36,6,7.93,9Zm-493-1-1.52-1.3c2.59-3,5.27-6,8-9l1.47,1.36c-2.69,2.91-5.35,5.91-7.92,8.91Zm476.87-16.58c-2.78-2.82-5.65-5.63-8.52-8.34l1.37-1.46c2.89,2.73,5.77,5.55,8.57,8.39Zm-460.7-.94-1.42-1.41c2.81-2.83,5.7-5.64,8.6-8.35l1.37,1.46C289.78,166,286.9,168.83,284.11,171.64Zm443.36-15.42c-3-2.61-6-5.2-9.11-7.69l1.26-1.55c3.09,2.51,6.17,5.12,9.16,7.74Zm-426-.86-1.31-1.51c3-2.61,6.1-5.2,9.19-7.7l1.26,1.56C307.57,150.18,304.5,152.76,301.51,155.36ZM709,141.17c-3.15-2.38-6.4-4.74-9.65-7l1.14-1.64c3.27,2.28,6.54,4.66,9.71,7.05Zm-388.93-.77-1.2-1.6c3.19-2.39,6.46-4.74,9.72-7l1.14,1.64C326.47,135.68,323.22,138,320.05,140.39Zm369.37-12.88c-3.33-2.15-6.74-4.26-10.14-6.28l1-1.72c3.42,2,6.86,4.16,10.21,6.32Zm-349.8-.68-1.08-1.68c3.35-2.14,6.79-4.25,10.21-6.27l1,1.72c-3.4,2-6.82,4.1-10.15,6.23Zm329.29-11.51c-3.47-1.89-7-3.75-10.58-5.52l.89-1.79c3.57,1.78,7.16,3.65,10.65,5.55Zm-308.77-.57-1-1.76c3.5-1.89,7.08-3.74,10.64-5.5l.89,1.79C367.17,111,363.61,112.87,360.14,114.75Zm287.41-10.08c-3.6-1.63-7.29-3.22-11-4.72l.76-1.85c3.7,1.51,7.41,3.11,11,4.75Zm-266.08-.46-.82-1.82c3.62-1.62,7.32-3.21,11-4.7l.75,1.85C388.75,101,385.07,102.6,381.47,104.21Zm244-8.58c-3.73-1.36-7.53-2.68-11.29-3.9l.62-1.9c3.79,1.23,7.61,2.55,11.36,3.92Zm-221.94-.35-.68-1.88c3.73-1.36,7.54-2.66,11.32-3.87l.61,1.9C411,92.64,407.23,93.93,403.52,95.28Zm199.21-7c-3.81-1.08-7.69-2.11-11.52-3l.47-1.94c3.86.94,7.76,2,11.6,3.06ZM426.18,88l-.54-1.93c3.83-1.07,7.73-2.09,11.6-3l.47,1.94C433.86,85.92,430,86.93,426.18,88Zm153.4-5.4c-3.87-.8-7.81-1.53-11.72-2.18l.33-2c3.93.66,7.89,1.4,11.79,2.2Zm-130.23-.19-.4-2c3.9-.79,7.87-1.52,11.79-2.16l.32,2C457.17,80.9,453.22,81.62,449.34,82.41Zm106.73-3.75c-3.93-.51-7.92-1-11.85-1.31l.18-2c4,.37,8,.81,11.92,1.32Zm-83.21-.12-.25-2c3.94-.5,8-.93,11.92-1.29l.18,2C480.76,77.61,476.78,78,472.86,78.54Zm59.48-2.08c-3.94-.22-7.95-.37-11.91-.45l0-2c4,.08,8,.23,12,.45Zm-35.74-.05-.11-2c4-.21,8-.35,12-.42l0,2C504.55,76.06,500.55,76.2,496.6,76.41Z"
        transform="translate(-131 -74)" />
    <path class="cls-3" d="M831.1,333.15q-.62-2.93-1.28-5.84l1.95-.45q.67,2.93,1.29,5.88Z"
        transform="translate(-131 -74)" />
    <path class="cls-3" d="M833.8,463.55l-2-.39q.58-2.93,1.11-5.88l2,.35Q834.38,460.6,833.8,463.55Z"
        transform="translate(-131 -74)" />
    <path class="cls-3"
        d="M514,726q-3.26,0-6.51-.06l0-2c4,.08,7.93.08,11.89,0l0,2Q516.73,726,514,726Zm17.42-.46-.11-2c4-.21,7.95-.49,11.86-.84l.18,2C539.41,725,535.4,725.29,531.42,725.5Zm-35.87-.06c-4-.22-8-.52-11.93-.88l.18-2c3.92.36,7.91.66,11.86.88Zm59.7-2.07-.25-2c3.94-.5,7.9-1.07,11.77-1.71l.32,2c-3.9.64-7.88,1.21-11.84,1.72Zm-83.52-.13c-4-.51-7.93-1.1-11.83-1.75l.33-2c3.88.65,7.83,1.23,11.76,1.74Zm107.13-3.73-.4-2c3.88-.78,7.79-1.65,11.61-2.57l.47,1.95C586.69,717.85,582.75,718.72,578.85,719.5Zm-130.72-.21c-3.9-.8-7.83-1.68-11.67-2.62l.47-1.94c3.82.93,7.72,1.81,11.6,2.61Zm154-5.39-.54-1.93c3.79-1.06,7.63-2.21,11.39-3.42l.61,1.9c-3.79,1.21-7.64,2.37-11.46,3.44Zm-177.23-.28c-3.82-1.08-7.68-2.26-11.48-3.49l.62-1.9c3.77,1.22,7.61,2.39,11.41,3.46Zm200-7-.68-1.88c3.7-1.34,7.42-2.76,11.08-4.24l.75,1.85c-3.68,1.49-7.43,2.92-11.15,4.27Zm-222.79-.39c-3.74-1.37-7.5-2.82-11.18-4.33l.76-1.85c3.66,1.49,7.4,2.94,11.11,4.3ZM647,697.68l-.82-1.83c3.6-1.61,7.21-3.31,10.74-5l.88,1.79c-3.55,1.75-7.19,3.46-10.81,5.08Zm-267.12-.51c-3.62-1.64-7.27-3.37-10.83-5.14l.89-1.79c3.54,1.76,7.16,3.48,10.76,5.1Zm288.55-10-.95-1.76c3.48-1.87,7-3.83,10.35-5.82l1,1.72c-3.41,2-6.91,4-10.41,5.86Zm-310-.63c-3.49-1.9-7-3.89-10.42-5.92l1-1.72c3.4,2,6.88,4,10.35,5.88ZM689,675,688,673.35c3.31-2.11,6.64-4.32,9.9-6.57l1.14,1.65c-3.28,2.26-6.63,4.48-10,6.61Zm-351.21-.74c-3.34-2.15-6.69-4.39-9.95-6.66L329,666c3.24,2.26,6.57,4.49,9.89,6.62ZM708.7,661.45l-1.2-1.6c3.16-2.35,6.32-4.8,9.39-7.28l1.25,1.56c-3.1,2.49-6.28,5-9.45,7.32Zm-390.52-.85c-3.17-2.38-6.34-4.86-9.43-7.37l1.26-1.55c3.07,2.49,6.23,5,9.37,7.33Zm409.16-14.14L726,645c3-2.58,6-5.25,8.84-7.95l1.36,1.46c-2.9,2.71-5.9,5.4-8.9,8Zm-427.74-.94c-3-2.62-6-5.32-8.87-8l1.37-1.46c2.87,2.7,5.83,5.39,8.81,8Zm445.24-15.37-1.42-1.41c2.79-2.8,5.57-5.69,8.24-8.57l1.47,1.36C750.43,624.44,747.64,627.34,744.83,630.16Zm-462.67-1c-2.79-2.82-5.56-5.73-8.25-8.66l1.47-1.35c2.67,2.91,5.43,5.8,8.2,8.61Zm478.94-16.52-1.52-1.3c2.58-3,5.14-6.08,7.6-9.15l1.56,1.25C766.26,606.5,763.69,609.6,761.09,612.61ZM266,611.53c-2.57-3-5.13-6.12-7.6-9.23l1.57-1.24c2.45,3.09,5,6.18,7.55,9.18ZM776,593.92l-1.61-1.19c2.36-3.18,4.69-6.44,6.91-9.69l1.65,1.13C780.76,587.44,778.42,590.72,776,593.92Zm-524.92-1.13c-2.35-3.2-4.67-6.48-6.9-9.76l1.65-1.12c2.22,3.26,4.52,6.52,6.86,9.7Zm538.47-18.61-1.69-1.07c2.11-3.33,4.19-6.75,6.18-10.17l1.73,1C793.81,567.39,791.71,570.83,789.59,574.18ZM237.68,573c-2.11-3.36-4.18-6.8-6.17-10.23l1.73-1c2,3.41,4,6.83,6.13,10.17Zm564-19.53-1.76-.94c1.87-3.5,3.69-7.06,5.42-10.6l1.8.88C805.37,546.38,803.54,550,801.65,553.49Zm-575.92-1.16c-1.86-3.5-3.67-7.09-5.4-10.65l1.8-.87c1.71,3.54,3.52,7.11,5.36,10.59ZM812.17,532l-1.83-.81c1.6-3.61,3.16-7.3,4.63-11l1.86.74c-1.48,3.7-3,7.42-4.66,11Zm-596.83-1.13c-1.59-3.63-3.14-7.34-4.6-11l1.86-.74c1.45,3.66,3,7.34,4.57,10.95ZM821.07,509.7l-1.88-.67c1.33-3.73,2.61-7.53,3.8-11.3l1.91.6C823.7,502.12,822.41,505.95,821.07,509.7Zm-614.51-1.06c-1.32-3.74-2.59-7.56-3.78-11.35l1.91-.6c1.18,3.77,2.44,7.56,3.75,11.28Zm621.74-21.81-1.93-.53c1-3.79,2-7.67,2.95-11.52l1.95.46C830.35,479.12,829.35,483,828.29,486.83Zm-628.87-1c-1-3.83-2-7.72-2.93-11.59l1.95-.45c.89,3.84,1.87,7.71,2.91,11.51Z"
        transform="translate(-131 -74)" />
    <path class="cls-3" d="M194,462.31q-.57-3-1.09-5.92l2-.34q.51,3,1.08,5.88Z" transform="translate(-131 -74)" />
    <path class="cls-3"
        d="M677.26,464.46l-1.86-.74c.73-1.83,1.43-3.71,2.1-5.58l1.88.67C678.71,460.7,678,462.6,677.26,464.46Z"
        transform="translate(-131 -74)" />
    <path class="cls-3"
        d="M514,575.45c-2.4,0-4.81,0-7.19-.14l.08-2c3.94.16,8,.19,11.91.08l.05,2Q516.44,575.45,514,575.45Zm16.88-.8-.19-2c3.94-.37,7.91-.89,11.81-1.54l.33,2C538.88,573.75,534.86,574.27,530.88,574.65Zm-36.07-.24c-4-.43-8-1-11.92-1.71l.35-2c3.89.7,7.85,1.27,11.79,1.69Zm59.83-3.69-.46-1.95c3.85-.91,7.71-2,11.48-3.15l.59,1.91c-3.81,1.19-7.72,2.26-11.62,3.18Zm-83.52-.55c-3.88-1-7.78-2.1-11.58-3.34l.62-1.9c3.75,1.22,7.61,2.34,11.44,3.3Zm106.51-6.61-.73-1.86c3.68-1.43,7.36-3,10.94-4.7l.85,1.81c-3.62,1.71-7.34,3.3-11.07,4.75Zm-129.4-.86c-3.71-1.5-7.41-3.15-11-4.9l.88-1.8c3.55,1.73,7.21,3.36,10.88,4.85Zm151.18-9.39-1-1.75c3.46-1.93,6.88-4,10.19-6.16l1.09,1.68C606.36,549.27,602.89,551.36,599.4,553.31Zm-172.83-1.16c-3.47-2-6.91-4.14-10.23-6.37l1.11-1.66c3.28,2.2,6.68,4.32,10.11,6.29Zm193-12-1.21-1.6c3.16-2.39,6.28-4.91,9.26-7.49l1.31,1.51C625.91,535.21,622.76,537.75,619.57,540.17Zm-213-1.42c-3.17-2.45-6.28-5-9.26-7.7l1.33-1.49c2.95,2.63,6,5.19,9.16,7.61Zm231.18-14.35L636.34,523c2.8-2.79,5.55-5.71,8.15-8.68l1.5,1.32c-2.63,3-5.41,6-8.25,8.78Zm-249.16-1.67c-2.8-2.86-5.53-5.85-8.13-8.89l1.52-1.3c2.57,3,5.27,6,8,8.79Zm265-16.44L652,505.08c2.4-3.14,4.72-6.41,6.89-9.71l1.67,1.1C658.4,499.81,656.05,503.11,653.63,506.29ZM373,504.42c-2.38-3.21-4.69-6.55-6.84-9.91l1.68-1.08c2.13,3.33,4.41,6.62,6.76,9.8Zm293.92-18.22-1.74-1c1.94-3.44,3.79-7,5.5-10.56l1.8.86c-1.72,3.61-3.6,7.2-5.56,10.68Zm-306.91-2c-1.92-3.51-3.75-7.13-5.42-10.76l1.82-.84c1.65,3.58,3.46,7.16,5.36,10.63Z"
        transform="translate(-131 -74)" />
    <path class="cls-3" d="M349.86,462.22c-.71-1.86-1.39-3.77-2-5.68l1.89-.64c.64,1.88,1.32,3.77,2,5.61Z"
        transform="translate(-131 -74)" />
    <path class="cls-3"
        d="M353,335.28l-1.86-.75c.75-1.86,1.54-3.73,2.35-5.56l1.83.81C354.48,331.59,353.7,333.44,353,335.28Z"
        transform="translate(-131 -74)" />
    <path class="cls-3"
        d="M360.53,318.95l-1.77-.93c1.89-3.57,3.93-7.13,6.07-10.56l1.7,1.06C364.42,311.9,362.4,315.42,360.53,318.95ZM665.89,316c-1.93-3.49-4-7-6.19-10.32l1.68-1.09c2.2,3.4,4.31,6.91,6.26,10.44ZM373.23,298.51l-1.62-1.17c2.37-3.28,4.88-6.52,7.47-9.62l1.54,1.28C378.05,292.07,375.57,295.27,373.23,298.51Zm279.57-2.67c-2.4-3.19-4.94-6.35-7.56-9.37l1.51-1.31c2.65,3.06,5.22,6.25,7.65,9.48ZM388.63,280l-1.45-1.38c2.79-2.92,5.73-5.78,8.72-8.5l1.35,1.48C394.29,274.3,391.39,277.13,388.63,280Zm248.43-2.37c-2.82-2.83-5.77-5.61-8.78-8.24l1.32-1.5c3,2.66,6,5.47,8.88,8.34ZM406.43,263.82l-1.24-1.57c3.17-2.51,6.47-4.94,9.8-7.22l1.13,1.65C412.83,258.93,409.56,261.34,406.43,263.82Zm212.53-2c-3.18-2.42-6.49-4.76-9.83-7l1.1-1.67c3.38,2.22,6.73,4.59,9.94,7ZM426.29,250.23l-1-1.72c3.49-2,7.09-4,10.71-5.8l.89,1.79C433.29,246.28,429.73,248.2,426.29,250.23Zm172.56-1.65c-3.49-2-7.09-3.82-10.7-5.53l.86-1.81c3.65,1.73,7.29,3.61,10.82,5.59Zm-151-9.06-.76-1.85c3.74-1.54,7.58-3,11.41-4.25l.63,1.9C455.32,236.58,451.52,238,447.83,239.52Zm129.26-1.24c-3.73-1.46-7.55-2.8-11.36-4l.6-1.91c3.86,1.2,7.72,2.56,11.49,4Zm-106.44-6.37-.5-1.94c3.91-1,7.91-1.89,11.89-2.62l.36,2C478.48,230,474.52,230.92,470.66,231.91Zm83.47-.8c-3.89-.92-7.86-1.72-11.8-2.36l.32-2c4,.65,8,1.46,11.94,2.39Zm-59.8-3.56-.22-2c4-.45,8.09-.77,12.14-.95l.09,2C502.32,226.8,498.28,227.11,494.32,227.56Zm36.06-.34c-4-.37-8-.61-12-.71l0-2c4,.1,8.14.34,12.15.72Z"
        transform="translate(-131 -74)" />
    <path class="cls-3" d="M673.8,332.28c-.77-1.83-1.59-3.66-2.42-5.45l1.81-.84c.84,1.81,1.67,3.67,2.45,5.51Z"
        transform="translate(-131 -74)" />
    <path class="cls-4" d="M699.62,399.72a11.35,11.35,0,1,0,8,3.32A11.18,11.18,0,0,0,699.62,399.72Z"
        transform="translate(-131 -74)" />
    <path class="cls-4" d="M665.68,411.11a11.35,11.35,0,1,0-11.39,11.3" transform="translate(-131 -74)" />
    <path class="cls-4" d="M677,337a57,57,0,1,0,57,57A57,57,0,0,0,677,337Z" transform="translate(-131 -74)" />
    <path class="cls-4" d="M840.9,339.39a57,57,0,1,0,57,57A57,57,0,0,0,840.9,339.39Z" transform="translate(-131 -74)" />
    <path class="cls-4" d="M188,337a57,57,0,1,0,57,57A57,57,0,0,0,188,337Z" transform="translate(-131 -74)" />
    <path class="cls-4" d="M345.31,338.33a57,57,0,1,0,57,57A57,57,0,0,0,345.31,338.33Z"
        transform="translate(-131 -74)" />
    <path class="cls-4"
        d="M514,337a57,57,0,1,0,57,57A57,57,0,0,0,514,337Zm26.26,62.56c-.59,0-2.54,0-3.12-.05l-11.23-.29a.34.34,0,0,0-.29.16l-16.86,25.2a2.76,2.76,0,0,1-2.34,1.28h-4.1c-1,0-1.3-1-1-1.87L510,399.2a.34.34,0,0,0-.2-.44l-.12,0-21.06-.47a1.42,1.42,0,0,0-1.14.54L481,406.71a2.8,2.8,0,0,1-2.18,1.06h-2.89a.69.69,0,0,1-.66-.92L478.71,395a2.82,2.82,0,0,0,0-2.06L475.27,381a.69.69,0,0,1,.66-.92h2.91a2.75,2.75,0,0,1,2.18,1.06l6.4,7.79a1.39,1.39,0,0,0,1.14.54l21.18-.31a.34.34,0,0,0,.31-.47L501.38,364c-.35-.9,0-1.87,1-1.87h4.1a2.78,2.78,0,0,1,2.34,1.28l16.84,25.22a.32.32,0,0,0,.29.16l11.23-.29c.55,0,2.53-.05,3.12-.05,7.68,0,12.51,2.49,12.51,5.56S547.93,399.51,540.26,399.51Z"
        transform="translate(-131 -74)" />
    <path class="cls-5"
        d="M196.67,586.09a12,12,0,1,1,12-12A12,12,0,0,1,196.67,586.09Zm0-22a10,10,0,1,0,10,10A10,10,0,0,0,196.67,564.09Z"
        transform="translate(-131 -74)" />
    <path class="cls-5"
        d="M449.67,317.09a12,12,0,1,1,12-12A12,12,0,0,1,449.67,317.09Zm0-22a10,10,0,1,0,10,10A10,10,0,0,0,449.67,295.09Z"
        transform="translate(-131 -74)" />
    <path class="cls-5"
        d="M673.14,646.46,659.68,632l14.44-13.47L687.58,633ZM661.83,632.1l11.39,12.22,12.22-11.39L674,620.7Z"
        transform="translate(-131 -74)" />
    <line class="cls-4" x1="592.07" y1="338.57" x2="592.07" y2="340.54" />
    <line class="cls-4" x1="592.07" y1="338.57" x2="592.07" y2="340.54" />
    <line class="cls-4" x1="561.07" y1="523.33" x2="561.07" y2="526.71" />
    <line class="cls-4" x1="561.07" y1="523.33" x2="561.07" y2="526.71" />
    <g class="cls-6">
        <path class="cls-7"
            d="M626.68,417.67l-.24-.05a52.1,52.1,0,0,1,18.65-29.15c23.26-18.17,57.35-14.68,76.16,7.79a51.62,51.62,0,0,1,10.68,21.22l-.24.05c-5.62-23.82-27.22-40.46-52.55-40.46C654.15,377.07,632.16,394.15,626.68,417.67Z"
            transform="translate(-131 -74)" />
        <ellipse class="cls-8" cx="539.06" cy="312.82" rx="3.81" ry="3.68" />
        <ellipse class="cls-8" cx="532.01" cy="314.58" rx="2.67" ry="2.58" />
        <path class="cls-4"
            d="M690.5,417.28a2.39,2.39,0,0,0,.91,1.19,2.3,2.3,0,0,0,.17-1.48,2.39,2.39,0,0,0-.91-1.19A2.3,2.3,0,0,0,690.5,417.28Z"
            transform="translate(-131 -74)" />
        <path class="cls-3"
            d="M690.8,417.12a2.33,2.33,0,0,1,.64,1.35,2.5,2.5,0,0,1-1.42-.58,2.33,2.33,0,0,1-.64-1.35A2.5,2.5,0,0,1,690.8,417.12Z"
            transform="translate(-131 -74)" />
        <polygon class="cls-4"
            points="534.93 337.74 534.42 336.92 539.13 333.02 551.24 333.02 551.24 334.16 546.87 338.71 541.82 339.69 534.93 337.74" />
        <polygon class="cls-9"
            points="553.33 335.31 553.33 332.77 551.74 332.77 551.74 333.57 551.24 333.02 547.21 336.92 546.53 337.57 545.69 340.82 547.21 344.4 554.94 344.4 554.94 337.08 553.33 335.31" />
        <rect class="cls-10" x="534.42" y="336.92" width="12.78" height="7.47" />
        <rect class="cls-4" x="542.75" y="339.28" width="2.69" height="2.27" />
        <rect class="cls-9" x="539.3" y="339.2" width="2.35" height="5.2" />
        <polygon class="cls-4"
            points="536.61 340.01 536.61 339.2 535.6 339.2 535.6 340.01 536.53 340.01 536.61 340.01" />
        <polygon class="cls-4"
            points="536.53 340.66 535.6 340.66 535.6 341.47 536.61 341.47 536.61 340.66 536.53 340.66" />
        <rect class="cls-4" x="537.28" y="339.2" width="1.01" height="0.81" />
        <rect class="cls-4" x="537.28" y="340.66" width="1.01" height="0.81" />
        <polygon class="cls-4"
            points="550.82 340.09 550.82 339.28 549.81 339.28 549.81 340.09 550.74 340.09 550.82 340.09" />
        <polygon class="cls-4"
            points="550.74 340.74 549.81 340.74 549.81 341.55 550.82 341.55 550.82 340.74 550.74 340.74" />
        <rect class="cls-4" x="551.49" y="339.28" width="1.01" height="0.81" />
        <rect class="cls-4" x="551.49" y="340.74" width="1.01" height="0.81" />
        <polygon class="cls-4"
            points="512.17 324.09 511.33 323.44 516.04 319.37 527.98 319.37 527.98 322.95 520.25 327.99 512.17 324.09" />
        <polygon class="cls-9"
            points="530.16 321.65 530.16 319.45 528.57 319.45 528.57 319.99 527.98 319.37 524.11 323.44 522.6 324.41 520.25 340.98 523.79 344.4 532.02 344.4 532.02 323.6 530.16 321.65" />
        <rect class="cls-10" x="511.33" y="323.44" width="12.78" height="20.96" />
        <rect class="cls-9" x="516.29" y="339.28" width="2.35" height="5.12" />
        <polygon class="cls-4"
            points="513.77 340.74 513.77 339.93 512.76 339.93 512.76 340.74 513.69 340.74 513.77 340.74" />
        <polygon class="cls-4"
            points="513.69 341.39 512.76 341.39 512.76 342.2 513.77 342.2 513.77 341.39 513.69 341.39" />
        <rect class="cls-4" x="514.44" y="339.93" width="1.01" height="0.81" />
        <rect class="cls-4" x="514.44" y="341.39" width="1.01" height="0.81" />
        <polygon class="cls-4"
            points="520.66 340.74 520.66 339.93 519.66 339.93 519.66 340.74 520.58 340.74 520.66 340.74" />
        <polygon class="cls-4"
            points="520.58 341.39 519.66 341.39 519.66 342.2 520.66 342.2 520.66 341.39 520.58 341.39" />
        <rect class="cls-4" x="521.34" y="339.93" width="1.01" height="0.81" />
        <rect class="cls-4" x="521.34" y="341.39" width="1.01" height="0.81" />
        <polygon class="cls-4"
            points="527.73 324.49 527.73 323.68 526.72 323.68 526.72 324.49 527.64 324.49 527.73 324.49" />
        <polygon class="cls-4"
            points="527.64 325.14 526.72 325.14 526.72 325.95 527.73 325.95 527.73 325.14 527.64 325.14" />
        <rect class="cls-4" x="528.4" y="323.68" width="1.01" height="0.81" />
        <rect class="cls-4" x="528.4" y="325.14" width="1.01" height="0.81" />
        <polygon class="cls-4"
            points="527.73 329.04 527.73 328.23 526.72 328.23 526.72 329.04 527.64 329.04 527.73 329.04" />
        <polygon class="cls-4"
            points="527.64 329.69 526.72 329.69 526.72 330.5 527.73 330.5 527.73 329.69 527.64 329.69" />
        <rect class="cls-4" x="528.4" y="328.23" width="1.01" height="0.81" />
        <rect class="cls-4" x="528.4" y="329.69" width="1.01" height="0.81" />
        <polygon class="cls-4"
            points="527.73 333.59 527.73 332.78 526.72 332.78 526.72 333.59 527.64 333.59 527.73 333.59" />
        <polygon class="cls-4"
            points="527.64 334.24 526.72 334.24 526.72 335.05 527.73 335.05 527.73 334.24 527.64 334.24" />
        <rect class="cls-4" x="528.4" y="332.78" width="1.01" height="0.81" />
        <rect class="cls-4" x="528.4" y="334.24" width="1.01" height="0.81" />
        <polygon class="cls-4"
            points="527.73 338.14 527.73 337.33 526.72 337.33 526.72 338.14 527.64 338.14 527.73 338.14" />
        <polygon class="cls-4"
            points="527.64 338.79 526.72 338.79 526.72 339.6 527.73 339.6 527.73 338.79 527.64 338.79" />
        <rect class="cls-4" x="528.4" y="337.33" width="1.01" height="0.81" />
        <rect class="cls-4" x="528.4" y="338.79" width="1.01" height="0.81" />
        <rect class="cls-4" x="512.76" y="324.49" width="9.75" height="1.95" />
        <rect class="cls-4" x="512.76" y="328.39" width="9.75" height="1.95" />
        <rect class="cls-4" x="512.76" y="332.29" width="9.75" height="1.95" />
        <rect class="cls-4" x="512.76" y="336.19" width="9.75" height="1.95" />
        <polygon class="cls-4"
            points="561.31 324.09 560.47 323.44 565.18 319.37 577.12 319.37 577.12 322.95 569.38 327.99 561.31 324.09" />
        <polygon class="cls-9"
            points="579.3 321.65 579.3 319.45 577.71 319.45 577.71 319.99 577.12 319.37 573.25 323.44 571.74 324.41 569.39 340.98 572.93 344.4 581.16 344.4 581.16 323.6 579.3 321.65" />
        <rect class="cls-10" x="560.47" y="323.44" width="12.78" height="20.96" />
        <rect class="cls-9" x="565.43" y="339.28" width="2.35" height="5.12" />
        <polygon class="cls-4"
            points="562.91 340.74 562.91 339.93 561.9 339.93 561.9 340.74 562.83 340.74 562.91 340.74" />
        <polygon class="cls-4"
            points="562.83 341.39 561.9 341.39 561.9 342.2 562.91 342.2 562.91 341.39 562.83 341.39" />
        <rect class="cls-4" x="563.58" y="339.93" width="1.01" height="0.81" />
        <rect class="cls-4" x="563.58" y="341.39" width="1.01" height="0.81" />
        <polygon class="cls-4"
            points="569.8 340.74 569.8 339.93 568.8 339.93 568.8 340.74 569.72 340.74 569.8 340.74" />
        <polygon class="cls-4" points="569.72 341.39 568.8 341.39 568.8 342.2 569.8 342.2 569.8 341.39 569.72 341.39" />
        <rect class="cls-4" x="570.48" y="339.93" width="1.01" height="0.81" />
        <rect class="cls-4" x="570.48" y="341.39" width="1.01" height="0.81" />
        <polygon class="cls-4"
            points="576.87 324.49 576.87 323.68 575.86 323.68 575.86 324.49 576.78 324.49 576.87 324.49" />
        <polygon class="cls-4"
            points="576.78 325.14 575.86 325.14 575.86 325.95 576.87 325.95 576.87 325.14 576.78 325.14" />
        <rect class="cls-4" x="577.54" y="323.68" width="1.01" height="0.81" />
        <rect class="cls-4" x="577.54" y="325.14" width="1.01" height="0.81" />
        <polygon class="cls-4"
            points="576.87 329.04 576.87 328.23 575.86 328.23 575.86 329.04 576.78 329.04 576.87 329.04" />
        <polygon class="cls-4"
            points="576.78 329.69 575.86 329.69 575.86 330.5 576.87 330.5 576.87 329.69 576.78 329.69" />
        <rect class="cls-4" x="577.54" y="328.23" width="1.01" height="0.81" />
        <rect class="cls-4" x="577.54" y="329.69" width="1.01" height="0.81" />
        <polygon class="cls-4"
            points="576.87 333.59 576.87 332.78 575.86 332.78 575.86 333.59 576.78 333.59 576.87 333.59" />
        <polygon class="cls-4"
            points="576.78 334.24 575.86 334.24 575.86 335.05 576.87 335.05 576.87 334.24 576.78 334.24" />
        <rect class="cls-4" x="577.54" y="332.78" width="1.01" height="0.81" />
        <rect class="cls-4" x="577.54" y="334.24" width="1.01" height="0.81" />
        <polygon class="cls-4"
            points="576.87 338.14 576.87 337.33 575.86 337.33 575.86 338.14 576.78 338.14 576.87 338.14" />
        <polygon class="cls-4"
            points="576.78 338.79 575.86 338.79 575.86 339.6 576.87 339.6 576.87 338.79 576.78 338.79" />
        <rect class="cls-4" x="577.54" y="337.33" width="1.01" height="0.81" />
        <rect class="cls-4" x="577.54" y="338.79" width="1.01" height="0.81" />
        <rect class="cls-4" x="561.9" y="324.49" width="9.75" height="1.95" />
        <rect class="cls-4" x="561.9" y="328.39" width="9.75" height="1.95" />
        <rect class="cls-4" x="561.9" y="332.29" width="9.75" height="1.95" />
        <rect class="cls-4" x="561.9" y="336.19" width="9.75" height="1.95" />
        <rect class="cls-4" x="508.7" y="335.01" width="0.24" height="9.31" />
        <path class="cls-3"
            d="M642.19,410.19a9.93,9.93,0,0,1-2.35,5.9,8.48,8.48,0,0,1-.06-11.79A9.94,9.94,0,0,1,642.19,410.19Z"
            transform="translate(-131 -74)" />
        <rect class="cls-4" x="533.08" y="335.01" width="0.24" height="9.31" />
        <path class="cls-3"
            d="M666.58,410.19a9.93,9.93,0,0,1-2.35,5.9,8.48,8.48,0,0,1-.06-11.79A9.94,9.94,0,0,1,666.58,410.19Z"
            transform="translate(-131 -74)" />
        <rect class="cls-4" x="581.74" y="335.01" width="0.24" height="9.31" />
        <path class="cls-3"
            d="M715.23,410.19a9.93,9.93,0,0,1-2.35,5.9,8.48,8.48,0,0,1-.06-11.79A9.94,9.94,0,0,1,715.23,410.19Z"
            transform="translate(-131 -74)" />
        <ellipse class="cls-3" cx="549.61" cy="302.78" rx="4.63" ry="1.01" />
        <path class="cls-3"
            d="M685.85,362.7c0,2.86-5.37,11-5.37,11s-5.37-8.09-5.37-11a5.39,5.39,0,0,1,5.49-5.18A5.17,5.17,0,0,1,685.85,362.7Z"
            transform="translate(-131 -74)" />
        <ellipse class="cls-10" cx="549.48" cy="288.7" rx="3.05" ry="2.95" />
        <ellipse class="cls-11" cx="539.06" cy="312.82" rx="3.81" ry="3.68" />
        <ellipse class="cls-11" cx="532.01" cy="314.58" rx="2.67" ry="2.58" />
        <path class="cls-12"
            d="M690.5,417.28a2.39,2.39,0,0,0,.91,1.19,2.3,2.3,0,0,0,.17-1.48,2.39,2.39,0,0,0-.91-1.19A2.3,2.3,0,0,0,690.5,417.28Z"
            transform="translate(-131 -74)" />
        <path class="cls-3"
            d="M690.8,417.12a2.33,2.33,0,0,1,.64,1.35,2.5,2.5,0,0,1-1.42-.58,2.33,2.33,0,0,1-.64-1.35A2.5,2.5,0,0,1,690.8,417.12Z"
            transform="translate(-131 -74)" />
        <polygon class="cls-11"
            points="534.93 337.74 534.42 336.92 539.13 333.02 551.24 333.02 551.24 334.16 546.87 338.71 541.82 339.69 534.93 337.74" />
        <polygon class="cls-12"
            points="553.33 335.31 553.33 332.77 551.74 332.77 551.74 333.57 551.24 333.02 547.21 336.92 546.53 337.57 545.69 340.82 547.21 344.4 554.94 344.4 554.94 337.08 553.33 335.31" />
        <rect class="cls-12" x="534.42" y="336.92" width="12.78" height="7.47" />
        <rect class="cls-11" x="542.75" y="339.28" width="2.69" height="2.27" />
        <rect class="cls-9" x="539.3" y="339.2" width="2.35" height="5.2" />
        <polygon class="cls-11"
            points="536.61 340.01 536.61 339.2 535.6 339.2 535.6 340.01 536.53 340.01 536.61 340.01" />
        <polygon class="cls-11"
            points="536.53 340.66 535.6 340.66 535.6 341.47 536.61 341.47 536.61 340.66 536.53 340.66" />
        <rect class="cls-11" x="537.28" y="339.2" width="1.01" height="0.81" />
        <rect class="cls-11" x="537.28" y="340.66" width="1.01" height="0.81" />
        <polygon class="cls-11"
            points="550.82 340.09 550.82 339.28 549.81 339.28 549.81 340.09 550.74 340.09 550.82 340.09" />
        <polygon class="cls-11"
            points="550.74 340.74 549.81 340.74 549.81 341.55 550.82 341.55 550.82 340.74 550.74 340.74" />
        <rect class="cls-11" x="551.49" y="339.28" width="1.01" height="0.81" />
        <rect class="cls-11" x="551.49" y="340.74" width="1.01" height="0.81" />
        <polygon class="cls-11"
            points="512.17 324.09 511.33 323.44 516.04 319.37 527.98 319.37 527.98 322.95 520.25 327.99 512.17 324.09" />
        <polygon class="cls-12"
            points="530.16 321.65 530.16 319.45 528.57 319.45 528.57 319.99 527.98 319.37 524.11 323.44 522.6 324.41 520.25 340.98 523.79 344.4 532.02 344.4 532.02 323.6 530.16 321.65" />
        <rect class="cls-12" x="511.33" y="323.44" width="12.78" height="20.96" />
        <rect class="cls-9" x="516.29" y="339.28" width="2.35" height="5.12" />
        <polygon class="cls-11"
            points="513.77 340.74 513.77 339.93 512.76 339.93 512.76 340.74 513.69 340.74 513.77 340.74" />
        <polygon class="cls-11"
            points="513.69 341.39 512.76 341.39 512.76 342.2 513.77 342.2 513.77 341.39 513.69 341.39" />
        <rect class="cls-11" x="514.44" y="339.93" width="1.01" height="0.81" />
        <rect class="cls-11" x="514.44" y="341.39" width="1.01" height="0.81" />
        <polygon class="cls-11"
            points="520.66 340.74 520.66 339.93 519.66 339.93 519.66 340.74 520.58 340.74 520.66 340.74" />
        <polygon class="cls-11"
            points="520.58 341.39 519.66 341.39 519.66 342.2 520.66 342.2 520.66 341.39 520.58 341.39" />
        <rect class="cls-11" x="521.34" y="339.93" width="1.01" height="0.81" />
        <rect class="cls-11" x="521.34" y="341.39" width="1.01" height="0.81" />
        <polygon class="cls-11"
            points="527.73 324.49 527.73 323.68 526.72 323.68 526.72 324.49 527.64 324.49 527.73 324.49" />
        <polygon class="cls-11"
            points="527.64 325.14 526.72 325.14 526.72 325.95 527.73 325.95 527.73 325.14 527.64 325.14" />
        <rect class="cls-11" x="528.4" y="323.68" width="1.01" height="0.81" />
        <rect class="cls-11" x="528.4" y="325.14" width="1.01" height="0.81" />
        <polygon class="cls-11"
            points="527.73 329.04 527.73 328.23 526.72 328.23 526.72 329.04 527.64 329.04 527.73 329.04" />
        <polygon class="cls-11"
            points="527.64 329.69 526.72 329.69 526.72 330.5 527.73 330.5 527.73 329.69 527.64 329.69" />
        <rect class="cls-11" x="528.4" y="328.23" width="1.01" height="0.81" />
        <rect class="cls-11" x="528.4" y="329.69" width="1.01" height="0.81" />
        <polygon class="cls-11"
            points="527.73 333.59 527.73 332.78 526.72 332.78 526.72 333.59 527.64 333.59 527.73 333.59" />
        <polygon class="cls-11"
            points="527.64 334.24 526.72 334.24 526.72 335.05 527.73 335.05 527.73 334.24 527.64 334.24" />
        <rect class="cls-11" x="528.4" y="332.78" width="1.01" height="0.81" />
        <rect class="cls-11" x="528.4" y="334.24" width="1.01" height="0.81" />
        <polygon class="cls-11"
            points="527.73 338.14 527.73 337.33 526.72 337.33 526.72 338.14 527.64 338.14 527.73 338.14" />
        <polygon class="cls-11"
            points="527.64 338.79 526.72 338.79 526.72 339.6 527.73 339.6 527.73 338.79 527.64 338.79" />
        <rect class="cls-11" x="528.4" y="337.33" width="1.01" height="0.81" />
        <rect class="cls-11" x="528.4" y="338.79" width="1.01" height="0.81" />
        <rect class="cls-3" x="512.76" y="324.49" width="9.75" height="1.95" />
        <rect class="cls-3" x="512.76" y="328.39" width="9.75" height="1.95" />
        <rect class="cls-3" x="512.76" y="332.29" width="9.75" height="1.95" />
        <rect class="cls-3" x="512.76" y="336.19" width="9.75" height="1.95" />
        <polygon class="cls-11"
            points="561.31 324.09 560.47 323.44 565.18 319.37 577.12 319.37 577.12 322.95 569.38 327.99 561.31 324.09" />
        <polygon class="cls-12"
            points="579.3 321.65 579.3 319.45 577.71 319.45 577.71 319.99 577.12 319.37 573.25 323.44 571.74 324.41 569.39 340.98 572.93 344.4 581.16 344.4 581.16 323.6 579.3 321.65" />
        <rect class="cls-12" x="560.47" y="323.44" width="12.78" height="20.96" />
        <rect class="cls-9" x="565.43" y="339.28" width="2.35" height="5.12" />
        <polygon class="cls-11"
            points="562.91 340.74 562.91 339.93 561.9 339.93 561.9 340.74 562.83 340.74 562.91 340.74" />
        <polygon class="cls-11"
            points="562.83 341.39 561.9 341.39 561.9 342.2 562.91 342.2 562.91 341.39 562.83 341.39" />
        <rect class="cls-11" x="563.58" y="339.93" width="1.01" height="0.81" />
        <rect class="cls-11" x="563.58" y="341.39" width="1.01" height="0.81" />
        <polygon class="cls-11"
            points="569.8 340.74 569.8 339.93 568.8 339.93 568.8 340.74 569.72 340.74 569.8 340.74" />
        <polygon class="cls-11"
            points="569.72 341.39 568.8 341.39 568.8 342.2 569.8 342.2 569.8 341.39 569.72 341.39" />
        <rect class="cls-11" x="570.48" y="339.93" width="1.01" height="0.81" />
        <rect class="cls-11" x="570.48" y="341.39" width="1.01" height="0.81" />
        <polygon class="cls-11"
            points="576.87 324.49 576.87 323.68 575.86 323.68 575.86 324.49 576.78 324.49 576.87 324.49" />
        <polygon class="cls-11"
            points="576.78 325.14 575.86 325.14 575.86 325.95 576.87 325.95 576.87 325.14 576.78 325.14" />
        <rect class="cls-11" x="577.54" y="323.68" width="1.01" height="0.81" />
        <rect class="cls-11" x="577.54" y="325.14" width="1.01" height="0.81" />
        <polygon class="cls-11"
            points="576.87 329.04 576.87 328.23 575.86 328.23 575.86 329.04 576.78 329.04 576.87 329.04" />
        <polygon class="cls-11"
            points="576.78 329.69 575.86 329.69 575.86 330.5 576.87 330.5 576.87 329.69 576.78 329.69" />
        <rect class="cls-11" x="577.54" y="328.23" width="1.01" height="0.81" />
        <rect class="cls-11" x="577.54" y="329.69" width="1.01" height="0.81" />
        <polygon class="cls-11"
            points="576.87 333.59 576.87 332.78 575.86 332.78 575.86 333.59 576.78 333.59 576.87 333.59" />
        <polygon class="cls-11"
            points="576.78 334.24 575.86 334.24 575.86 335.05 576.87 335.05 576.87 334.24 576.78 334.24" />
        <rect class="cls-11" x="577.54" y="332.78" width="1.01" height="0.81" />
        <rect class="cls-11" x="577.54" y="334.24" width="1.01" height="0.81" />
        <polygon class="cls-11"
            points="576.87 338.14 576.87 337.33 575.86 337.33 575.86 338.14 576.78 338.14 576.87 338.14" />
        <polygon class="cls-11"
            points="576.78 338.79 575.86 338.79 575.86 339.6 576.87 339.6 576.87 338.79 576.78 338.79" />
        <rect class="cls-11" x="577.54" y="337.33" width="1.01" height="0.81" />
        <rect class="cls-11" x="577.54" y="338.79" width="1.01" height="0.81" />
        <rect class="cls-11" x="561.9" y="324.49" width="9.75" height="1.95" />
        <rect class="cls-11" x="561.9" y="328.39" width="9.75" height="1.95" />
        <rect class="cls-11" x="561.9" y="332.29" width="9.75" height="1.95" />
        <rect class="cls-11" x="561.9" y="336.19" width="9.75" height="1.95" />
        <rect class="cls-4" x="508.7" y="335.01" width="0.24" height="9.31" />
        <path class="cls-3"
            d="M642.19,410.19a9.93,9.93,0,0,1-2.35,5.9,8.48,8.48,0,0,1-.06-11.79A9.94,9.94,0,0,1,642.19,410.19Z"
            transform="translate(-131 -74)" />
        <rect class="cls-4" x="533.08" y="335.01" width="0.24" height="9.31" />
        <path class="cls-3"
            d="M666.58,410.19a9.93,9.93,0,0,1-2.35,5.9,8.48,8.48,0,0,1-.06-11.79A9.94,9.94,0,0,1,666.58,410.19Z"
            transform="translate(-131 -74)" />
        <rect class="cls-4" x="581.74" y="335.01" width="0.24" height="9.31" />
        <path class="cls-3"
            d="M715.23,410.19a9.93,9.93,0,0,1-2.35,5.9,8.48,8.48,0,0,1-.06-11.79A9.94,9.94,0,0,1,715.23,410.19Z"
            transform="translate(-131 -74)" />
        <ellipse class="cls-13" cx="549.61" cy="302.78" rx="4.63" ry="1.01" />
        <path class="cls-14"
            d="M685.85,362.7c0,2.86-5.37,11-5.37,11s-5.37-8.09-5.37-11a5.39,5.39,0,0,1,5.49-5.18A5.17,5.17,0,0,1,685.85,362.7Z"
            transform="translate(-131 -74)" />
        <ellipse class="cls-3" cx="549.48" cy="288.7" rx="3.05" ry="2.95" />
    </g>
    <circle class="cls-15" cx="185.67" cy="291.18" r="3.57" />
    <path class="cls-15" d="M305.79,408.21l2.2-7.62.75.23s-.89,5.7-2.29,7.15Z" transform="translate(-131 -74)" />
    <path class="cls-16"
        d="M314.15,367.33s.28,3-.37,3.83.42,2.48.42,2.48l2,2.34,2.9-1.31.42-2.43-.28-1.68a3,3,0,0,1-.56-2.76C319.06,366,314.15,367.33,314.15,367.33Z"
        transform="translate(-131 -74)" />
    <path class="cls-17"
        d="M314.15,367.33s.28,3-.37,3.83.42,2.48.42,2.48l2,2.34,2.9-1.31.42-2.43-.28-1.68a3,3,0,0,1-.56-2.76C319.06,366,314.15,367.33,314.15,367.33Z"
        transform="translate(-131 -74)" />
    <polygon class="cls-16" points="184.83 349.26 184.83 351.17 187.4 351.69 187.17 348.51 184.83 349.26" />
    <polygon class="cls-16"
        points="192.54 348.51 191.98 351.17 193.1 351.97 195.06 350.52 194.83 348.23 192.54 348.51" />
    <path class="cls-15"
        d="M318.63,425.45a2,2,0,0,0-2.8-.62s-.33,1.83-.65,2-2.15,2.8,0,3a5.19,5.19,0,0,0,3.22-.47s-.42.36.23.17.37-1.21.37-1.21Z"
        transform="translate(-131 -74)" />
    <path class="cls-15"
        d="M325,424.33s-1.45,1-1.68.56a.64.64,0,0,0-.61-.42s-1.31,4.93-.47,5.17a2.83,2.83,0,0,0,1.64-.08s1.12-.79,1.12-.18,3.13.56,4.44.52.61-1,.61-1l-1.73-1.68-2-2.85S325.5,423.54,325,424.33Z"
        transform="translate(-131 -74)" />
    <path class="cls-15"
        d="M311.25,393.08l2,18.83s1.07,11.49,1.26,11.68,1.4.79,4.06,0l-.61-15,1.12-9.34,2.57,6.45s.61,17.33,1,17.33,3,.84,3.6-.19.51-12.1.51-12.1-.28-17.47-2.34-18S311.25,393.08,311.25,393.08Z"
        transform="translate(-131 -74)" />
    <circle class="cls-16" cx="185.67" cy="291.84" r="3.22" />
    <path class="cls-18"
        d="M316.86,374.81s-.33-2-.33-2.38-1.45-.61-1.45-.61-1.12-1.26-1.35-1.07-3.78,2.57-4.35,2.9a3.82,3.82,0,0,0-1.12,1.82l2.94,6.17s1.26,3.74.37,5.7-2,5.84-.37,6.63,9.58,2.52,11,1,2.48-1.92,2.85-1.92-1.54-6.49-1.12-7.1-.19-4.39-.19-4.39l2.15-6s-.19-3.36-4.44-4.11l-2.54-1.23Z"
        transform="translate(-131 -74)" />
    <path class="cls-16" d="M308.12,393.92s-.23,2.24-.23,2.9-1.12,4.49.51,5,1.5-5.09,1.5-5.09v-2.85Z"
        transform="translate(-131 -74)" />
    <path class="cls-16"
        d="M327.51,391.81a13.67,13.67,0,0,1,.14,2.62c-.14.47,1.35,4.53-.65,4.77s-1.5-4.86-1.5-4.86v-2.52Z"
        transform="translate(-131 -74)" />
    <path class="cls-15" d="M307.7,407.47l1.35-7.2h.42a2.83,2.83,0,0,1,.42,2.71,34.13,34.13,0,0,0-1,4.49Z"
        transform="translate(-131 -74)" />
    <path class="cls-18"
        d="M309,374.9l-.7.56s-.93,14.86-.7,16-.84,2.71.09,2.85,2.06.75,2.57.37.61-1.73.79-2.06a40.89,40.89,0,0,0,.51-4.2,18.21,18.21,0,0,0,.37-6.77c-.61-2.9-1.17-5.84-1.17-5.84Z"
        transform="translate(-131 -74)" />
    <path class="cls-18"
        d="M323.77,373.73l2.15,1.82,1.64,9.53s1,7.43.23,7.52-2-.14-2.52,0a1.09,1.09,0,0,1-.93-.23s-.56-3-.56-3-.37-3.46-.37-3.46l-.47-3.83.7-4.2Z"
        transform="translate(-131 -74)" />
    <path class="cls-12"
        d="M313.64,417.84l-.72,2.06-.64,1.81-.44,1.23-.65,1.8c-.26.7-.47,1.26-.58,1.51-.51,1.17-9.9-.7-10.65-1.17s-.93-2.06-1-4.3v0a8.17,8.17,0,0,1,.3-1.92c.1-.4.21-.82.34-1.26.17-.59.37-1.21.57-1.83.88-2.65,1.92-5.24,1.92-5.24a15.26,15.26,0,0,0,2.48-2.1c.65-.84,4.25-1.5,4.25-1.5,1,0,3.36,4,4.3,5.23S313.64,417.84,313.64,417.84Z"
        transform="translate(-131 -74)" />
    <circle class="cls-15" cx="177.4" cy="336.32" r="0.42" />
    <circle class="cls-15" cx="178.06" cy="336.78" r="0.23" />
    <path class="cls-19" d="M312.91,419.9l-.64,1.81-12.72-4.14c.17-.59.37-1.21.57-1.83Z"
        transform="translate(-131 -74)" />
    <path class="cls-19" d="M311.84,422.93l-.65,1.8-12.26-4a8.17,8.17,0,0,1,.3-1.92Z" transform="translate(-131 -74)" />
    <path class="cls-20" d="M308.4,410.41a24.17,24.17,0,0,1,.37,7.76,12.21,12.21,0,0,0,1.4,7.05"
        transform="translate(-131 -74)" />
    <path class="cls-20" d="M309.06,410.74s-1.82,6.63-1.87,7.57-.79,7.62-1.73,8.32" transform="translate(-131 -74)" />
    <path class="cls-15"
        d="M314.2,363.87s-.73-1.9.33-2.52l.29.84s2.66-1.61,3.36-1.24l-.66.88s3.1,0,3.32,1.2l-1.09,0a2.79,2.79,0,0,1,1.2,2l-2.34.15,1.13.66s-4.23.58-5.25-1.09Z"
        transform="translate(-131 -74)" />
    <path class="cls-15" d="M313.57,363.94s.84,1.68,2,1.26,0-2,0-2l-.75-.37Z" transform="translate(-131 -74)" />
    <path class="cls-10"
        d="M386.09,390.48l-15.25-19.06a5.12,5.12,0,0,1-2.47,1.25,5.41,5.41,0,0,1-6.26-4.38A5.53,5.53,0,0,1,364,362.9l-5.2-6.5-29.62,25.32,27.27,34.08Z"
        transform="translate(-131 -74)" />
    <circle class="cls-10" cx="236.14" cy="293.46" r="4.3" />
    <rect class="cls-3" x="340.79" y="386.37" width="2.01" height="5.86"
        transform="translate(-307.24 319.39) rotate(-49.17)" />
    <rect class="cls-3" x="369.03" y="413.71" width="2.01" height="5.19"
        transform="translate(-317.9 350.11) rotate(-49.17)" />
    <path class="cls-4"
        d="M375.82,402.51v.12q0,.44,0,.89a19.72,19.72,0,0,1-39.37.26q0-.63,0-1.26a19.62,19.62,0,0,1,3.63-11.4q.28-.4.59-.79l.43-.53a19.72,19.72,0,0,1,27.48-2.61l.7.59.54.5a19.66,19.66,0,0,1,6,12.58Q375.82,401.67,375.82,402.51Z"
        transform="translate(-131 -74)" />
    <path class="cls-3"
        d="M356.11,424.7a22.2,22.2,0,0,1-16.28-37.29l.49.46a21.53,21.53,0,0,0,31.24,29.63l.48.47A22,22,0,0,1,356.11,424.7Z"
        transform="translate(-131 -74)" />
    <rect class="cls-3" x="222.69" y="350.23" width="5.63" height="5.63" />
    <path class="cls-3"
        d="M340.61,390.32l0,0c.11.09,0,.25,0,.39s.25.22.43.23.4.16.32.32a2,2,0,0,1-1.36-.17,19.62,19.62,0,0,0-3.63,11.4q0,.64,0,1.26l.12.07a2.6,2.6,0,0,1,.41.11c.1.06.16.16.26.21.28.15.67-.14.93,0l.19.2c.24.21.64.07.92.23a1.09,1.09,0,0,1,.37.48,1.56,1.56,0,0,0,1.14.94,3.08,3.08,0,0,1,.49,0c.16,0,.31.17.29.33s.09.58.05.85c-.07.5-.78.72-.84,1.23a3,3,0,0,1,0,.33c0,.13-.13.24-.17.37a.7.7,0,0,0,.31.66,1.81,1.81,0,0,1,.54.55,2.81,2.81,0,0,1,.09.81,1.93,1.93,0,0,0,1.11,1.31,1.16,1.16,0,0,1,.43.32,1.75,1.75,0,0,1,.17.68c.11.57.59,1,.6,1.61a3.43,3.43,0,0,1-.36,1.17,2.71,2.71,0,0,0-.12,1.27,19.81,19.81,0,0,0,2.43,1.76.71.71,0,0,0,.1-.23.45.45,0,0,0-.21-.46,1.1,1.1,0,0,0,.38-.25.38.38,0,0,0,.07-.43.75.75,0,0,0,.67-.14.6.6,0,0,0,.07-.55,2.25,2.25,0,0,1-.13-.56,10,10,0,0,0,1.64-.05,1.06,1.06,0,0,0-.5-.63.86.86,0,0,0,.55-.57,1.46,1.46,0,0,0,0-.74.39.39,0,0,1,0-.19.38.38,0,0,1,.2-.19l1.22-.7a.74.74,0,0,0,.2-.14.58.58,0,0,0,0-.56,2.84,2.84,0,0,1-.2-.56c-.08-.59.55-1,.76-1.56a2.34,2.34,0,0,0,.12-.68.81.81,0,0,0-.17-.7c-.18-.15-.47-.12-.66-.26s-.24-.38-.43-.49-.39,0-.59-.08-.56-.47-.9-.51c-.2,0-.42.08-.58,0s-.15-.3-.17-.48a1.33,1.33,0,0,0-1.07-1.08,1.5,1.5,0,0,1-.6-.13c-.17-.11-.25-.32-.39-.48a1.64,1.64,0,0,0-.89-.42l-1.33-.31c-.23-.06-.54-.09-.67.12a.91.91,0,0,0-.08.25.77.77,0,0,1-.72.54.85.85,0,0,0-.5-.39l-.41-.1a.57.57,0,0,1-.26-.76v0a.71.71,0,0,0-.12-.85,1.15,1.15,0,0,0-.85-.23c-.08-.17.05-.37.2-.49s.32-.25.35-.44-.33-.52-.61-.43a1.07,1.07,0,0,0-.59.64,1.93,1.93,0,0,1-.24.45.47.47,0,0,1-.45.19c-.24-.06-.33-.34-.38-.58a3.76,3.76,0,0,1-.13-1,1.26,1.26,0,0,1,.36-.88,1.9,1.9,0,0,1,1.52-.27.39.39,0,0,1,0-.51.58.58,0,0,1,.53-.13.72.72,0,0,1,.41.24,3.77,3.77,0,0,1,.31.64c.11.21.37.38.58.27a.49.49,0,0,0,.16-.55,2,2,0,0,1-.12-.6c0-.39.43-.62.79-.78s.76-.38.82-.76a.71.71,0,0,1,0-.22.43.43,0,0,1,.16-.15,13.44,13.44,0,0,1,3.28-1.75c.06,0,.07,0,.13,0s0-.19-.05-.25-.2-.1-.22-.2,0-.14,0-.22a.27.27,0,0,0-.26-.29h-.1c-.1-.13.09-.27.25-.32a6.7,6.7,0,0,1,1.4-.23.25.25,0,0,1,.16,0,.19.19,0,0,1,0,.26,1.47,1.47,0,0,1-.21.19.59.59,0,0,0-.15.59,1.34,1.34,0,0,0,.79.21c.27,0,.52-.35.39-.6s-.48-.28-.54-.53.34-.56.25-.84c0-.13-.17-.2-.26-.29a.79.79,0,0,1-.17-.88A1,1,0,0,1,347,393c-.21-.21-.38-.54-.67-.53s-.51.33-.76.23c-.06,0-.13-.07-.19,0a.16.16,0,0,0-.07.12c-.06.31,0,.66-.12.93s-.61.33-.83.59-.17.33-.28.48-.35.25-.48.12a.66.66,0,0,0-.18-.8,1.73,1.73,0,0,0-.4-.19,2.36,2.36,0,0,1-.44-.25.44.44,0,0,1-.16-.17.4.4,0,0,1,0-.28,1.13,1.13,0,0,1,.9-.74c.18,0,.38,0,.5-.15s.09-.18.19-.21a.27.27,0,0,1,.17,0l.66.23a.45.45,0,0,0,.24,0,.16.16,0,0,0,.14-.17c0-.11-.19-.16-.17-.27a.17.17,0,0,1,.05-.09,2.37,2.37,0,0,1,1.88-.74c.08.14,0,.3-.16.42s-.2.33-.06.42a.35.35,0,0,0,.18,0,1.53,1.53,0,0,1,.47.14c.23.1.45.21.67.33a.85.85,0,0,1,0-.43.3.3,0,0,1,.35-.19c.13.05.2.23.34.24s.26-.25.18-.43-.23-.31-.25-.5,0-.28-.06-.36a.27.27,0,0,0-.12,0l-2.53-.46c-.15,0-.37,0-.37.14s.07.17,0,.25-.15.08-.24.11a.33.33,0,0,0-.19.34.94.94,0,0,0,.16.39c-.16-.07-.41-.08-.58-.15a2.22,2.22,0,0,0-.14-.56.2.2,0,0,0-.22-.17h0l-.65.1a.25.25,0,0,0-.15.06c-.08.09,0,.23,0,.36a.33.33,0,0,1-.26.29,1,1,0,0,1-.41,0l-.91-.14a1.49,1.49,0,0,0,.69-.46c.12-.14.19-.41,0-.47a.42.42,0,0,0-.16,0c-.41,0-.74-.34-1.13-.49a1.11,1.11,0,0,0-.38-.07Z"
        transform="translate(-131 -74)" />
    <path class="cls-3"
        d="M375.8,403.51a.48.48,0,0,1-.41.19c-.42,0-.6-.64-1-.71a.16.16,0,0,0-.11,0c-.06,0-.07.12-.08.19a2.31,2.31,0,0,0,.1,1c.2.47.71.86.6,1.35a2.11,2.11,0,0,1-1-1.54,10.81,10.81,0,0,0-.4-1.86c-.19.24-.58,0-.74-.21s-.26-.51-.42-.75a.92.92,0,0,0-.68-.47,1.22,1.22,0,0,0-.79.39,1.82,1.82,0,0,0-.49.54,2.47,2.47,0,0,0-.13,1.06,1.62,1.62,0,0,1-.35,1.08.78.78,0,0,1-1,.13,1.18,1.18,0,0,1-.29-.52,25.52,25.52,0,0,1-.79-2.81c0,.22-.24.5-.42.37a.38.38,0,0,1-.1-.13,2.82,2.82,0,0,0-1.61-1.13c-.64-.21-1.31-.3-1.93-.53a4.94,4.94,0,0,1-1-.5.79.79,0,0,0,0,.81.65.65,0,0,0,.73.3c.14,0,.26-.14.4-.19a.31.31,0,0,1,.38.11c.06.13,0,.28,0,.42s.37.22.48.4a.37.37,0,0,1-.1.43,1.81,1.81,0,0,1-.41.25,8.06,8.06,0,0,0-1.17,1,1.41,1.41,0,0,1-1.42.36c.11-.57-.56-1-.69-1.55,0-.19,0-.38-.08-.56a1.84,1.84,0,0,0-.51-.64,2.52,2.52,0,0,1-.69-1.83,2.54,2.54,0,0,0,0-.7.52.52,0,0,0-.47-.44c-.53,0-1.2.06-1.48-.39a.42.42,0,0,1,0-.52.51.51,0,0,1,.38-.07l1.2.12a1.34,1.34,0,0,0,.82-.1c.24-.15.35-.54.12-.71s-.45-.12-.5-.32.15-.36,0-.5-.23-.07-.33,0a2.16,2.16,0,0,1-.28.24.85.85,0,0,1-.63-.06c-.21-.06-.48-.07-.58.12s.1.49,0,.71-.64.12-.85.37.16.7.08,1.05a.66.66,0,0,1-.65,0,.63.63,0,0,1-.27-.58c0-.16.1-.33,0-.48a.56.56,0,0,0-.28-.26l-1.17-.65a.53.53,0,0,0,.2.6,2.08,2.08,0,0,1,.5.46.61.61,0,0,1-.23.8.14.14,0,0,1-.12,0,.16.16,0,0,1-.08-.1,2.48,2.48,0,0,0-1-1.32,1.2,1.2,0,0,0-1.53.24c-.08.11-.13.24-.2.35a2,2,0,0,1-1.83.89.35.35,0,0,1-.2,0c-.12-.08-.11-.25-.09-.39l.08-.59a.47.47,0,0,1,.13-.32c.13-.1.32,0,.49,0a.62.62,0,0,0,.56-.44.7.7,0,0,0-.2-.7c-.08-.07-.18-.16-.14-.26a.22.22,0,0,1,.15-.1c.3-.09.62-.11.92-.21a1,1,0,0,0,.66-.62c0-.09,0-.21.12-.25l.13,0a.65.65,0,0,0,.56-.68.43.43,0,0,1,.48.08,1.33,1.33,0,0,0,.43.29c.31.09.61-.19.94-.19a1.17,1.17,0,0,0,.41,0c.13,0,.21-.18.31-.27s.27-.15.37-.05l-.08-.58a1.14,1.14,0,0,0,.93-.17l-1-.34a.22.22,0,0,1-.1-.05c-.07-.08,0-.2.06-.29s.17-.57-.07-.68a.58.58,0,0,0-.5.1l-.74.41c0,.14.15.22.25.32a.43.43,0,0,1-.28.75.54.54,0,0,1,.1.45l-.5,0a.21.21,0,0,1-.16,0c-.05,0,0-.13-.06-.2a.43.43,0,0,0-.36-.32,1.26,1.26,0,0,0-.51,0,.31.31,0,0,1-.22,0,.22.22,0,0,1-.09-.11.56.56,0,0,1,.11-.54,3.09,3.09,0,0,1,.42-.39,2.47,2.47,0,0,0,.74-1.14c.27-.12.56-.27.83-.39a3.32,3.32,0,0,1,.69-.23,3.26,3.26,0,0,1,.68,0l.93,0a2.23,2.23,0,0,1,.81.12.76.76,0,0,1,.49.6.19.19,0,0,1-.06.17.22.22,0,0,1-.12,0c-.26,0-.36.07-.62.08a1,1,0,0,0,.58.39c.42.05.71-.38.91-.75a.37.37,0,0,0,.38.34.77.77,0,0,0,.29-.11,5.67,5.67,0,0,1,2.69-.69.29.29,0,0,1,.22-.32c.19,0,.36.13.46.3a1.61,1.61,0,0,0,.3.5c.15.13.43.12.49-.06s-.13-.33-.28-.44-.32-.3-.21-.45a13.79,13.79,0,0,1,2.39-.38,1,1,0,0,0,.4-.07.31.31,0,0,0,.19-.33.91.91,0,0,1-1-.36,8.19,8.19,0,0,1,2.5.06l.7.59c-.13.14-.31.27-.21.41a.3.3,0,0,0,.25.08h.51a19.66,19.66,0,0,1,6,12.58.59.59,0,0,0-.5.66,2.61,2.61,0,0,0,.49,1l.08.16Z"
        transform="translate(-131 -74)" />
    <line class="cls-1" x1="165.61" y1="355.85" x2="268" y2="355.85" />
    <circle class="cls-21" cx="207.85" cy="289.93" r="1.7" />
    <circle class="cls-21" cx="258.12" cy="322.33" r="1.7" />
    <circle class="cls-21" cx="246.51" cy="305.38" r="1.7" />
    <circle class="cls-4" cx="235.35" cy="319.76" r="1.91" />
    <circle class="cls-12" cx="241.48" cy="313.62" r="2.52" />
    <path class="cls-22"
        d="M375,385a3.56,3.56,0,0,0-5,.06c-1.37,1.41-3.33,8.51-3.33,8.51s7.05-2.13,8.43-3.54A3.56,3.56,0,0,0,375,385Zm-3.7,3.79a1.65,1.65,0,1,1,2.33,0h0A1.65,1.65,0,0,1,371.33,388.8Z"
        transform="translate(-131 -74)" />
    <path class="cls-23"
        d="M213.9,366.17a1,1,0,0,0-.57-.57l-20.72-8.13a1,1,0,0,0-1.27.68L186.63,373h-2.06v-3.77a3.47,3.47,0,0,0-1.17-2.64,2.76,2.76,0,0,0-2.59-.58l-24,7v0a1.08,1.08,0,0,0-.74,1.05v46.61a3.18,3.18,0,0,0,3,3.33h28a3.18,3.18,0,0,0,3-3.33V410.6l8,3.14a1,1,0,0,0,1.27-.68l14.63-46A1.22,1.22,0,0,0,213.9,366.17Zm-32.59,1.93a.92.92,0,0,1,.86.19,1.16,1.16,0,0,1,.39.88V373H164.76ZM188,420.67a1.06,1.06,0,0,1-1,1.11h-28a1.06,1.06,0,0,1-1-1.11v-45.5h29a1.06,1.06,0,0,1,1,1.11Zm8.21-41.28,1.28-.67.61,1.42-4.85,15.26a1.23,1.23,0,0,0,0,.85l1,2.42-.32,1-2-2.28a.94.94,0,0,0-.84-.33l-1.18.17v-1.49l.85-.45a1.08,1.08,0,0,0,.51-.63l2-6.28Zm1.88,6.64,2,2.63-.35.79-2.43-1.72Zm-8.1,6.25v-3l1,0Zm1.7-5.35L190,387v-1.48l2.45-.95Zm6,24.35-7.74-3v-8.78l.94-.13,2.76,3.17a1,1,0,0,0,.72.33l.21,0a1,1,0,0,0,.73-.71l1-3.14a1.22,1.22,0,0,0,0-.85l-1-2.41,1.37-4.3,2.94,2.86a.94.94,0,0,0,.66.28.89.89,0,0,0,.25,0,1,1,0,0,0,.69-.7l1-3.14a1.22,1.22,0,0,0-.09-1L199,384.12l1.17-3.68a1.22,1.22,0,0,0,0-.85l-1.22-2.83a1,1,0,0,0-1.33-.52L195,377.59a1.08,1.08,0,0,0-.51.63l-1.17,3.69-3.3,1.28v-6.9a3.41,3.41,0,0,0-1.43-2.83l1.63-5.14.37-1.15,2.3-7.21,18.84,7.39Z"
        transform="translate(-131 -74)" />
    <path class="cls-3" d="M205.64,374.36l.66-2.09,1.71.67-.66,2.09Z" transform="translate(-131 -74)" />
    <path class="cls-3" d="M191.94,369l.67-2.09,1.71.67-.67,2.09Z" transform="translate(-131 -74)" />
    <path class="cls-3" d="M202.21,373l.67-2.09,1.71.67-.67,2.09Z" transform="translate(-131 -74)" />
    <path class="cls-3" d="M195.36,370.33l.67-2.09,1.71.67-.67,2.09Z" transform="translate(-131 -74)" />
    <path class="cls-3" d="M198.79,371.67l.67-2.09,1.71.67-.67,2.09Z" transform="translate(-131 -74)" />
    <path class="cls-3"
        d="M172.58,379.61c-5.52,0-10,5-10,11.1s4.47,11.1,10,11.1,10-5,10-11.1S178.09,379.62,172.58,379.61Zm7.21,7.3-1.36-.33c-.6-.15-1.2-.26-1.8-.36-.09-.67-.2-1.34-.33-2l-.3-1.51A8.52,8.52,0,0,1,179.79,386.91Zm-15.21,3.79a9.75,9.75,0,0,1,.1-1.35l2.47-.61c.38-.09.76-.17,1.14-.24a33.73,33.73,0,0,0,0,4.42c-.38-.07-.76-.15-1.14-.24l-2.47-.61A9.75,9.75,0,0,1,164.59,390.71Zm5.74-2.5a22.8,22.8,0,0,1,4.5,0,31.11,31.11,0,0,1,0,5,22.72,22.72,0,0,1-4.5,0A31.11,31.11,0,0,1,170.33,388.21Zm6.53.29c.38.07.76.15,1.14.24l2.47.61a8.89,8.89,0,0,1,0,2.71l-2.47.61c-.38.09-.76.17-1.14.25A33.58,33.58,0,0,0,176.85,388.5Zm-3.06-6.56.55,2.75c.08.42.15.84.22,1.27a24.52,24.52,0,0,0-4,0c.07-.43.14-.85.22-1.27l.55-2.75A6.57,6.57,0,0,1,173.8,381.94Zm-4.64.75-.3,1.51c-.13.67-.24,1.33-.33,2q-.91.15-1.8.36l-1.36.33a8.53,8.53,0,0,1,3.79-4.21Zm-3.8,11.81,1.36.33c.6.15,1.2.26,1.8.36q.14,1,.33,2l.3,1.51a8.52,8.52,0,0,1-3.8-4.21Zm6,5-.55-2.75c-.08-.42-.15-.84-.22-1.27.66.05,1.33.09,2,.09s1.33,0,2-.09c-.07.42-.14.85-.22,1.27l-.55,2.75A6.57,6.57,0,0,1,171.36,399.47Zm4.64-.75.3-1.51c.13-.67.24-1.33.33-2,.6-.1,1.21-.22,1.8-.36l1.36-.33a8.52,8.52,0,0,1-3.8,4.22Z"
        transform="translate(-131 -74)" />
    <path class="cls-3" d="M164.59,410.68h16v2.22h-16Z" transform="translate(-131 -74)" />
    <path class="cls-3" d="M166.58,415.12h12v2.22h-12Z" transform="translate(-131 -74)" />
    <path class="cls-3" d="M171.58,406.24h2v2.22h-2Z" transform="translate(-131 -74)" />
    <path class="cls-3" d="M167.58,406.24h2v2.22h-2Z" transform="translate(-131 -74)" />
    <path class="cls-3" d="M175.57,406.24h2v2.22h-2Z" transform="translate(-131 -74)" />
    <path class="cls-10"
        d="M872,393.77c-6.57-4.65-16.87-9.06-28.25-12.08-10.36-2.75-20.47-4.08-28.46-3.74l0-.88c8.09-.34,18.3,1,28.75,3.77,11.49,3,21.9,7.5,28.56,12.22Z"
        transform="translate(-131 -74)" />
    <path class="cls-3"
        d="M871.32,397.36a28,28,0,0,1-2.68,12q-.22.47-.46.94c-5.21,10.11-16.05,16.52-27.93,16.52-17.16,0-31.07-13.17-31.07-29.42q0-1,.07-2,0-.51.09-1c1.61-14.82,14.83-26.38,30.91-26.38C857.4,367.93,871.32,381.11,871.32,397.36Z"
        transform="translate(-131 -74)" />
    <path class="cls-17"
        d="M868.64,409.33q-.22.47-.46.94-1.36.14-2.87.2c-.83,0-1.69.05-2.56.05a105.71,105.71,0,0,1-26.19-3.82c-10.45-2.77-19.91-6.66-26.63-10.93l-.67-.44q0-.51.09-1l1.1.72c6.64,4.22,16,8.06,26.37,10.81a104.7,104.7,0,0,0,25.94,3.79q1.29,0,2.52-.05Q867.05,409.51,868.64,409.33Z"
        transform="translate(-131 -74)" />
    <path class="cls-10"
        d="M862.75,409.82A105.69,105.69,0,0,1,836.55,406c-10.45-2.77-19.91-6.66-26.63-10.93s-10.08-8.66-9.06-12.1,6.13-5.53,14.38-5.88l0,.88a30.08,30.08,0,0,0-9.34,1.61c-2.34.9-3.75,2.12-4.19,3.63s.09,3.24,1.59,5.16a28.19,28.19,0,0,0,7.09,6c6.64,4.22,16,8.06,26.37,10.81a104.72,104.72,0,0,0,25.94,3.79q1.29,0,2.52-.05a30.08,30.08,0,0,0,9.34-1.61c2.34-.9,3.75-2.12,4.19-3.63.8-2.7-1.61-6.2-6.8-9.87l.56-.71a23.7,23.7,0,0,1,5.87,5.53c1.31,1.91,1.74,3.69,1.27,5.29-1,3.44-6.13,5.53-14.38,5.88C864.48,409.8,863.62,409.82,862.75,409.82Z"
        transform="translate(-131 -74)" />
    <ellipse class="cls-10" cx="710.07" cy="288.29" rx="0.36" ry="0.34" />
    <ellipse class="cls-10" cx="644.07" cy="368.74" rx="1.33" ry="1.26" />
    <ellipse class="cls-10" cx="734.16" cy="290.31" rx="0.24" ry="0.22" />
    <ellipse class="cls-10" cx="762.76" cy="322.01" rx="0.24" ry="0.22" />
    <ellipse class="cls-10" cx="749.71" cy="311.67" rx="0.24" ry="0.22" />
    <ellipse class="cls-10" cx="684.31" cy="295.37" rx="0.24" ry="0.22" />
    <ellipse class="cls-10" cx="748.88" cy="318.97" rx="0.24" ry="0.22" />
    <ellipse class="cls-10" cx="678.5" cy="350.78" rx="0.24" ry="0.22" />
    <polygon class="cls-10"
        points="699.03 278.88 698.7 278.88 698.7 278.57 698.53 278.57 698.53 278.88 698.2 278.88 698.2 279.05 698.53 279.05 698.53 279.36 698.7 279.36 698.7 279.05 699.03 279.05 699.03 278.88" />
    <polygon class="cls-10"
        points="734.4 355.3 734.07 355.3 734.07 354.99 733.89 354.99 733.89 355.3 733.57 355.3 733.57 355.47 733.89 355.47 733.89 355.78 734.07 355.78 734.07 355.47 734.4 355.47 734.4 355.3" />
    <polygon class="cls-10"
        points="756.35 350.69 756.03 350.69 756.03 350.38 755.85 350.38 755.85 350.69 755.52 350.69 755.52 350.86 755.85 350.86 755.85 351.17 756.03 351.17 756.03 350.86 756.35 350.86 756.35 350.69" />
    <ellipse class="cls-4" cx="709.71" cy="300.32" rx="2.61" ry="2.47" />
    <ellipse class="cls-4" cx="689.65" cy="318.41" rx="2.61" ry="2.47" />
    <ellipse class="cls-4" cx="718.49" cy="343.25" rx="2.61" ry="2.47" />
    <ellipse class="cls-4" cx="709.71" cy="322.23" rx="2.61" ry="2.47" />
    <ellipse class="cls-4" cx="690.96" cy="335.83" rx="2.61" ry="2.47" />
    <ellipse class="cls-4" cx="723.72" cy="308.97" rx="2.61" ry="2.47" />
    <ellipse class="cls-4" cx="732.38" cy="325.72" rx="2.61" ry="2.47" />
    <ellipse class="cls-12" cx="709.71" cy="311.44" rx="3.44" ry="3.26" />
    <path class="cls-24"
        d="M840.71,380.72a4.74,4.74,0,0,0-4.87,4.61c0,2.54,4.87,10.9,4.87,10.9s4.87-8.36,4.87-10.9A4.74,4.74,0,0,0,840.71,380.72Zm0,6.86a2.14,2.14,0,1,1,2.26-2.14,2.2,2.2,0,0,1-2.26,2.14h0Z"
        transform="translate(-131 -74)" />
    <ellipse class="cls-12" cx="690.96" cy="325.38" rx="3.44" ry="3.26" />
    <path class="cls-24"
        d="M822,394.66a4.74,4.74,0,0,0-4.87,4.61c0,2.54,4.87,10.9,4.87,10.9s4.87-8.36,4.87-10.9A4.74,4.74,0,0,0,822,394.66Zm0,6.86a2.14,2.14,0,1,1,2.26-2.14,2.2,2.2,0,0,1-2.26,2.14h0Z"
        transform="translate(-131 -74)" />
    <ellipse class="cls-12" cx="732.38" cy="315.27" rx="3.44" ry="3.26" />
    <path class="cls-24"
        d="M863.38,384.54a4.74,4.74,0,0,0-4.87,4.61c0,2.54,4.87,10.9,4.87,10.9s4.87-8.36,4.87-10.9A4.74,4.74,0,0,0,863.38,384.54Zm0,6.86a2.14,2.14,0,1,1,2.26-2.14,2.2,2.2,0,0,1-2.26,2.14Z"
        transform="translate(-131 -74)" />
    <ellipse class="cls-12" cx="709.71" cy="289.53" rx="3.44" ry="3.26" />
    <path class="cls-24"
        d="M840.71,358.81a4.74,4.74,0,0,0-4.87,4.61c0,2.54,4.87,10.9,4.87,10.9s4.87-8.36,4.87-10.9A4.74,4.74,0,0,0,840.71,358.81Zm0,6.86a2.14,2.14,0,1,1,2.26-2.14,2.2,2.2,0,0,1-2.26,2.14Z"
        transform="translate(-131 -74)" />
    <ellipse class="cls-12" cx="718.49" cy="332.8" rx="3.44" ry="3.26" />
    <path class="cls-24"
        d="M849.49,402.08a4.74,4.74,0,0,0-4.87,4.61c0,2.54,4.87,10.9,4.87,10.9s4.87-8.36,4.87-10.9A4.74,4.74,0,0,0,849.49,402.08Zm0,6.86a2.14,2.14,0,1,1,2.26-2.14,2.2,2.2,0,0,1-2.26,2.14Z"
        transform="translate(-131 -74)" />
    <ellipse class="cls-12" cx="689.65" cy="307.74" rx="3.44" ry="3.26" />
    <path class="cls-24"
        d="M820.65,377a4.74,4.74,0,0,0-4.87,4.61c0,2.54,4.87,10.9,4.87,10.9s4.87-8.36,4.87-10.9A4.74,4.74,0,0,0,820.65,377Zm0,6.86a2.14,2.14,0,1,1,2.26-2.14,2.2,2.2,0,0,1-2.26,2.14Z"
        transform="translate(-131 -74)" />
    <ellipse class="cls-12" cx="723.72" cy="298.63" rx="3.44" ry="3.26" />
    <path class="cls-24"
        d="M854.72,367.91a4.74,4.74,0,0,0-4.87,4.61c0,2.54,4.87,10.9,4.87,10.9s4.87-8.36,4.87-10.9A4.74,4.74,0,0,0,854.72,367.91Zm0,6.86a2.14,2.14,0,1,1,2.26-2.14,2.2,2.2,0,0,1-2.26,2.14h0Z"
        transform="translate(-131 -74)" />
</svg>
