<svg height="478pt" viewBox="0 -1 478.00324 478" width="478pt" xmlns="http://www.w3.org/2000/svg">
    <path style="fill:#d69e2e;"
        d="m477.007812 117.730469c-1.027343-1.859375-2.753906-3.238281-4.800781-3.824219l-391.847656-113.589844c-4.242187-1.226562-8.671875 1.214844-9.902344 5.457032l-20.511719 70.75h-25.945312c-13.253906 0-24 10.746093-24 24v352c0 13.253906 10.746094 24 24 24h208c13.253906 0 24-10.746094 24-24v-159.742188l151.640625 43.949219c.722656.214843 1.46875.320312 2.222656.320312 3.5625 0 6.691407-2.355469 7.679688-5.773437l60.144531-207.457032c.589844-2.039062.347656-4.230468-.679688-6.089843zm-237.007812 334.792969c0 4.417968-3.582031 8-8 8h-208c-4.417969 0-8-3.582032-8-8v-352c0-4.417969 3.582031-8 8-8h208c4.417969 0 8 3.582031 8 8zm65.070312-291.03125-24.148437-38.566407c-5.113281-9.296875-4.914063-26.976562-1.675781-28.753906 3.242187-1.777344 18.28125 7.488281 23.203125 16.398437l19.894531 41.441407c1.621094 3.367187 5.359375 5.164062 9 4.328125l72.535156-16.617188 9.042969 16.417969-66.808594 25.246094c-2.101562.792969-3.769531 2.429687-4.601562 4.511719-.835938 2.082031-.757813 4.421874.214843 6.441406l12.800782 26.703125c1.5 3.121093 4.835937 4.921875 8.265625 4.464843l37.847656-5.03125 2.253906 4.105469-44.308593 11.703125c-1.273438.332032-2.441407.976563-3.402344 1.871094l-33.597656 31.199219-2.257813-4.101563 24.488281-29.28125c2.222656-2.65625 2.484375-6.441406.648438-9.375l-15.664063-25.152344c-1.1875-1.902343-3.117187-3.214843-5.320312-3.625-2.207031-.421874-4.488281.117188-6.273438 1.480469l-57.070312 42.941407-4.136719-7.519532v-13.757812l47.921875-47.554688c2.652344-2.628906 3.128906-6.75 1.148437-9.917968zm99.335938 157.648437-148.40625-43.023437v-16.113282c2.238281.460938 4.570312-.0625 6.398438-1.433594l57.472656-43.246093 8 12.800781-24.269532 29.023438c-2.117187 2.53125-2.464843 6.101562-.875 8.992187l9.832032 17.863281c1.1875 2.15625 3.304687 3.648438 5.738281 4.039063.417969.070312.84375.105469 1.269531.105469 2.023438 0 3.96875-.761719 5.449219-2.136719l39.632813-36.800781 52.28125-13.808594c2.378906-.628906 4.335937-2.320313 5.304687-4.585938.96875-2.261718.839844-4.847656-.347656-7.003906l-9.886719-17.855469c-1.582031-2.867187-4.75-4.480469-8-4.074219l-37.511719 4.992188-6.535156-13.597656 67.246094-25.433594c2.164062-.820312 3.867187-2.535156 4.671875-4.707031.800781-2.171875.625-4.582031-.488282-6.613281l-16.398437-29.792969c-1.726563-3.128907-5.316406-4.734375-8.800781-3.933594l-72.183594 16.496094-17.335938-36.082031c-6.953124-12.628907-29.960937-31.460938-45.136718-23.085938-15.175782 8.375-11.574219 37.855469-4.398438 50.871094l20.984375 33.527344-32.113281 31.898437v-95.898437c0-13.253907-10.746094-24-24-24h-165.398438l16.992188-58.617188 376.503906 109.144531zm0 0" />
    <path style="fill:#d69e2e;"
        d="m149.816406 119.125c-.207031-.050781-.390625-.128906-.601562-.160156-38.636719-8.902344-78.773438 6.867187-101.015625 39.691406-22.246094 32.824219-22.023438 75.945312.558593 108.535156 22.585938 32.589844 62.882813 47.945313 101.425782 38.644532.199218-.0625.410156-.085938.601562-.160157 43.144532-10.5 73.4375-49.253906 73.207032-93.65625-.230469-44.40625-30.921876-82.84375-74.175782-92.894531zm42.03125 45.398438h-16.648437c-6.535157-11.359376-15.347657-21.246094-25.886719-29.039063 16.988281 4.734375 31.9375 14.941406 42.535156 29.039063zm9.3125 80.234374c-.378906-.109374-.769531-.1875-1.160156-.234374h-17.457031c2.714843-7.75 4.425781-15.816407 5.097656-24h19.953125c-.839844 8.367187-3.011719 16.550781-6.433594 24.234374zm-146.320312 0c-3.421875-7.683593-5.59375-15.867187-6.433594-24.234374h23.953125c.667969 8.183593 2.375 16.25 5.089844 24h-21.449219c-.390625.046874-.78125.125-1.160156.234374zm0-64.464843c.378906.105469.769531.183593 1.160156.230469h21.457031c-2.714843 7.75-4.425781 15.816406-5.097656 24h-23.953125c.839844-8.367188 3.011719-16.546876 6.433594-24.230469zm116.609375 24.230469h-35.449219v-24h29.359375c3.265625 7.636718 5.320313 15.734374 6.089844 24zm-35.449219-40v-18.679688c7.648438 5.039062 14.371094 11.359375 19.871094 18.679688zm-16-15.808594v15.808594h-15.832031c4.511719-5.984376 9.839843-11.308594 15.832031-15.808594zm0 31.808594v24h-31.449219c.773438-8.269532 2.832031-16.367188 6.105469-24zm-31.449219 40h31.449219v24h-25.359375c-3.265625-7.632813-5.320313-15.730469-6.089844-24zm31.449219 40v15.855468c-6.015625-4.507812-11.359375-9.84375-15.871094-15.855468zm16 18.664062v-18.664062h19.832031c-5.5 7.308593-12.207031 13.617187-19.832031 18.664062zm0-34.664062v-24h35.449219c-.773438 8.269531-2.832031 16.367187-6.105469 24zm71.59375-40h-19.953125c-.667969-8.183594-2.375-16.25-5.089844-24h17.449219c.390625-.046876.78125-.125 1.160156-.230469 3.421875 7.683593 5.59375 15.863281 6.433594 24.230469zm-97.457031-69.917969h.078125c.417968.09375.800781.238281 1.226562.335937-10.84375 7.882813-19.90625 17.964844-26.59375 29.582032h-20.695312c11.328125-15.078126 27.609375-25.671876 45.984375-29.917969zm-45.984375 125.917969h20.648437c6.679688 11.613281 15.734375 21.683593 26.574219 29.550781-.40625.097656-.800781.242187-1.183594.328125l-.078125.042968c-18.367187-4.253906-34.640625-14.847656-45.960937-29.921874zm85.054687 29.058593c10.554688-7.800781 19.386719-17.691406 25.945313-29.058593h16.695312c-10.617187 14.125-25.609375 24.339843-42.640625 29.058593zm0 0" />
    <path style="fill:#d69e2e;"
        d="m216 356.523438h-176c-4.417969 0-8 3.582031-8 8 0 4.417968 3.582031 8 8 8h176c4.417969 0 8-3.582032 8-8 0-4.417969-3.582031-8-8-8zm0 0" />
    <path style="fill:#d69e2e;"
        d="m216 380.523438h-24c-4.417969 0-8 3.582031-8 8 0 4.417968 3.582031 8 8 8h24c4.417969 0 8-3.582032 8-8 0-4.417969-3.582031-8-8-8zm0 0" />
    <path style="fill:#d69e2e;"
        d="m168 380.523438h-128c-4.417969 0-8 3.582031-8 8 0 4.417968 3.582031 8 8 8h128c4.417969 0 8-3.582032 8-8 0-4.417969-3.582031-8-8-8zm0 0" />
    <path style="fill:#d69e2e;"
        d="m152 404.523438h-112c-4.417969 0-8 3.582031-8 8 0 4.417968 3.582031 8 8 8h112c4.417969 0 8-3.582032 8-8 0-4.417969-3.582031-8-8-8zm0 0" />
    <path style="fill:#d69e2e;"
        d="m64 116.523438c4.417969 0 8-3.582032 8-8 0-4.417969-3.582031-8-8-8h-32c-4.417969 0-8 3.582031-8 8 0 4.417968 3.582031 8 8 8zm0 0" />
</svg>
